<?xml version="1.0"?>
<svg width="306" height="454" xmlns="http://www.w3.org/2000/svg" xmlns:svg="http://www.w3.org/2000/svg" preserveAspectRatio="xMidYMid meet" version="1.1" xml:space="preserve">
 <title>Layer 1</title>
 <g class="layer">
  <title>Layer 1</title>
  <rect class="A0101" fill="#048FC9" height="20.4" id="svg_3001" width="20.4" x="95.49" y="0"/>
  <rect class="A0102" fill="#048FC9" height="20" id="svg_3002" width="20" x="118.92" y="0.2"/>
  <rect class="A0103" fill="#048FC9" height="20.4" id="svg_3003" width="20.4" x="142.59" y="0"/>
  <rect class="A0104" fill="#048FC9" height="20.4" id="svg_3004" width="20.4" x="166.33" y="0"/>
  <rect class="A0105" fill="#048FC9" height="20.4" id="svg_3005" width="20.4" x="190.03" y="0"/>
  <rect class="A0106" fill="#048FC9" height="20.4" id="svg_3006" width="20.4" x="213.97" y="0"/>
  <rect class="A0107" fill="#048FC9" height="20.4" id="svg_3007" width="20" x="237.39" y="0"/>
  <rect class="A0108" fill="#048FC9" height="20.4" id="svg_3008" width="20.4" x="260.89" y="0"/>
  <rect class="A0109" fill="#048FC9" height="20.4" id="svg_3009" width="20.4" x="284.39" y="0"/>
  <rect class="A0201" fill="#048FC9" height="20.4" id="svg_3010" width="20.4" x="72.37" y="27.38"/>
  <rect class="A0202" fill="#048FC9" height="20.4" id="svg_3011" width="20.8" x="95.19" y="27.38"/>
  <rect class="A0203" fill="#048FC9" height="20.4" id="svg_3012" width="20.4" x="119.37" y="27.38"/>
  <rect class="A0204" fill="#048FC9" height="20.4" id="svg_3013" width="20.4" x="143.39" y="27.38"/>
  <rect class="A0205" fill="#048FC9" height="20.4" id="svg_3014" width="20.4" x="166.07" y="27.38"/>
  <rect class="A0206" fill="#048FC9" height="20.4" id="svg_3015" width="20.4" x="190.27" y="27.38"/>
  <rect class="A0207" fill="#048FC9" height="20.4" id="svg_3016" width="20.4" x="213.87" y="27.38"/>
  <rect class="A0208" fill="#048FC9" height="20.4" id="svg_3017" width="20.8" x="237.29" y="27.38"/>
  <rect class="A0209" fill="#048FC9" height="20.4" id="svg_3018" width="20.4" x="260.89" y="27.38"/>
  <rect class="A0210" fill="#048FC9" height="20.4" id="svg_3019" width="20.4" x="284.29" y="27.38"/>
  <rect class="A0301" fill="#048FC9" height="20.4" id="svg_3020" width="20.4" x="72.37" y="54.23"/>
  <rect class="A0302" fill="#048FC9" height="20.4" id="svg_3021" width="20.4" x="95.27" y="54.23"/>
  <rect class="A0303" fill="#048FC9" height="20.4" id="svg_3022" width="20.4" x="119.37" y="54.23"/>
  <rect class="A0304" fill="#048FC9" height="20.4" id="svg_3023" width="20.4" x="143.39" y="54.23"/>
  <rect class="A0305" fill="#048FC9" height="20.4" id="svg_3024" width="20.4" x="166.57" y="54.23"/>
  <rect class="A0306" fill="#048FC9" height="20.4" id="svg_3025" width="20.4" x="190.27" y="54.23"/>
  <rect class="A0307" fill="#048FC9" height="20.4" id="svg_3026" width="20.4" x="213.47" y="54.23"/>
  <rect class="A0308" fill="#048FC9" height="20.4" id="svg_3027" width="20.4" x="237.39" y="54.23"/>
  <rect class="A0309" fill="#048FC9" height="20.4" id="svg_3028" width="20.4" x="260.49" y="54.23"/>
  <rect class="A0310" fill="#048FC9" height="20.4" id="svg_3029" width="21.6" x="283.87" y="54.23"/>
  <rect class="A0401" fill="#048FC9" height="20.4" id="svg_3030" width="22.8" x="47.42" y="81.47"/>
  <rect class="A0402" fill="#048FC9" height="20.4" id="svg_3031" width="20.4" x="72.07" y="81.47"/>
  <rect class="A0403" fill="#048FC9" height="20.4" id="svg_3032" width="21.2" x="94.77" y="81.47"/>
  <rect class="A0404" fill="#048FC9" height="20.4" id="svg_3033" width="20.4" x="119.37" y="81.47"/>
  <rect class="A0405" fill="#048FC9" height="20.4" id="svg_3034" width="20.4" x="142.99" y="81.47"/>
  <rect class="A0406" fill="#048FC9" height="20.4" id="svg_3035" width="21.1" x="166.47" y="81.47"/>
  <rect class="A0407" fill="#048FC9" height="20.4" id="svg_3036" width="20.4" x="189.97" y="81.47"/>
  <rect class="A0408" fill="#048FC9" height="20.4" id="svg_3037" width="20.4" x="213.87" y="81.47"/>
  <rect class="A0409" fill="#048FC9" height="20.4" id="svg_3038" width="21.2" x="236.89" y="81.47"/>
  <rect class="A0410" fill="#048FC9" height="20.4" id="svg_3039" width="20.4" x="261.69" y="81.47"/>
  <rect class="A0411" fill="#048FC9" height="20.4" id="svg_3040" width="20.8" x="284.17" y="81.47"/>
  <rect class="A0501" fill="#048FC9" height="21.6" id="svg_3041" width="21.6" x="48.02" y="107.22"/>
  <rect class="A0502" fill="#048FC9" height="20.4" id="svg_3042" width="20.4" x="72.29" y="107.82"/>
  <rect class="A0503" fill="#048FC9" height="20.4" id="svg_3043" width="20.8" x="94.89" y="107.82"/>
  <rect class="A0504" fill="#048FC9" height="20.4" id="svg_3044" width="20.8" x="118.99" y="107.82"/>
  <rect class="A0505" fill="#048FC9" height="20.4" id="svg_3045" width="20.4" x="142.99" y="107.82"/>
  <rect class="A0506" fill="#048FC9" height="20.4" id="svg_3046" width="20.4" x="166.29" y="107.82"/>
  <rect class="A0507" fill="#048FC9" height="21.6" id="svg_3047" width="20.4" x="190.09" y="107.22"/>
  <rect class="A0508" fill="#048FC9" height="20.4" id="svg_3048" width="20.4" x="213.89" y="107.82"/>
  <rect class="A0509" fill="#048FC9" height="20.4" id="svg_3049" width="20.4" x="237.29" y="107.82"/>
  <rect class="A0510" fill="#048FC9" height="20.4" id="svg_3050" width="20.4" x="261.29" y="107.82"/>
  <rect class="A0511" fill="#048FC9" height="20.8" id="svg_3051" width="20.4" x="284.49" y="107.62"/>
  <rect class="A0601" fill="#048FC9" height="22" id="svg_3052" width="21.5" x="47.71" y="133.89"/>
  <rect class="A0602" fill="#048FC9" height="20.4" id="svg_3053" width="20.4" x="72.39" y="134.69"/>
  <rect class="A0603" fill="#048FC9" height="20.4" id="svg_3054" width="21.6" x="94.99" y="134.69"/>
  <rect class="A0604" fill="#048FC9" height="20.4" id="svg_3055" width="20.8" x="119.49" y="134.69"/>
  <rect class="A0605" fill="#048FC9" height="20.4" id="svg_3056" width="20.4" x="143.49" y="134.69"/>
  <rect class="A0606" fill="#048FC9" height="20.4" id="svg_3057" width="20.4" x="166.29" y="134.69"/>
  <rect class="A0607" fill="#048FC9" height="20.4" id="svg_3058" width="20.4" x="190.09" y="134.69"/>
  <rect class="A0608" fill="#048FC9" height="20.4" id="svg_3059" width="20.4" x="213.89" y="134.69"/>
  <rect class="A0609" fill="#048FC9" height="20.4" id="svg_3060" width="21.6" x="236.99" y="134.69"/>
  <rect class="A0610" fill="#048FC9" height="20.4" id="svg_3061" width="20.4" x="261.29" y="134.69"/>
  <rect class="A0611" fill="#048FC9" height="20.4" id="svg_3062" width="20.4" x="284.39" y="134.69"/>
  <rect class="A0701" fill="#048FC9" height="20.4" id="svg_3063" width="20.4" x="25.16" y="162.28"/>
  <rect class="A0702" fill="#048FC9" height="20.4" id="svg_3064" width="20.4" x="48.62" y="162.28"/>
  <rect class="A0703" fill="#048FC9" height="20.4" id="svg_3065" width="20.4" x="71.49" y="162.28"/>
  <rect class="A0704" fill="#048FC9" height="20.4" id="svg_3066" width="20.4" x="95.29" y="162.28"/>
  <rect class="A0705" fill="#048FC9" height="20.4" id="svg_3067" width="21.2" x="119.09" y="162.28"/>
  <rect class="A0706" fill="#048FC9" height="20.4" id="svg_3068" width="20.4" x="143.39" y="162.28"/>
  <rect class="A0707" fill="#048FC9" height="20.4" id="svg_3069" width="21.2" x="166.39" y="162.28"/>
  <rect class="A0708" fill="#048FC9" height="20.4" id="svg_3070" width="20.4" x="189.99" y="162.28"/>
  <rect class="A0709" fill="#048FC9" height="20.4" id="svg_3071" width="20.4" x="213.89" y="162.28"/>
  <rect class="A0710" fill="#048FC9" height="20.4" id="svg_3072" width="20.4" x="237.19" y="162.28"/>
  <rect class="A0711" fill="#048FC9" height="20.4" id="svg_3073" width="20.4" x="260.99" y="162.28"/>
  <rect class="A0712" fill="#048FC9" height="20.4" id="svg_3074" width="21.2" x="283.79" y="162.28"/>
  <rect class="A0801" fill="#048FC9" height="20.4" id="svg_3075" width="20.4" x="25.16" y="188.92"/>
  <rect class="A0802" fill="#048FC9" height="20.4" id="svg_3076" width="21.6" x="48.02" y="188.92"/>
  <rect class="A0803" fill="#048FC9" height="20.4" id="svg_3077" width="21.6" x="70.89" y="188.92"/>
  <rect class="A0804" fill="#048FC9" height="20.4" id="svg_3078" width="20.8" x="95.29" y="188.92"/>
  <rect class="A0805" fill="#048FC9" height="20.4" id="svg_3079" width="21.2" x="119.49" y="188.92"/>
  <rect class="A0806" fill="#048FC9" height="20.4" id="svg_3080" width="20.4" x="143.09" y="188.92"/>
  <rect class="A0807" fill="#048FC9" height="20.4" id="svg_3081" width="20.8" x="165.89" y="188.92"/>
  <rect class="A0808" fill="#048FC9" height="21" id="svg_1968" width="20.5" x="190.29" y="188.62"/>
  <rect class="A0809" fill="#048FC9" height="20.4" id="svg_1969" width="21.6" x="213.59" y="188.92"/>
  <rect class="A0810" fill="#048FC9" height="20.4" id="svg_1970" width="21.6" x="236.89" y="188.92"/>
  <rect class="A0811" fill="#048FC9" height="20.4" id="svg_1971" width="20.4" x="261.29" y="188.92"/>
  <rect class="A0812" fill="#048FC9" height="20.4" id="svg_1972" width="20.8" x="284.09" y="188.92"/>
  <rect class="A0901" fill="#048FC9" height="20" id="svg_1973" width="20" x="0" y="215.71"/>
  <rect class="A0902" fill="#048FC9" height="20.4" id="svg_1974" width="21.07" x="24.83" y="215.71"/>
  <rect class="A0903" fill="#048FC9" height="20.4" id="svg_1975" width="21.07" x="48.28" y="215.71"/>
  <rect class="A0904" fill="#048FC9" height="20.4" id="svg_1976" width="20.4" x="71.84" y="215.71"/>
  <rect class="A0905" fill="#048FC9" height="20.4" id="svg_1977" width="21.07" x="95.17" y="215.71"/>
  <rect class="A0906" fill="#048FC9" height="20.4" id="svg_1978" width="21.1" x="118.64" y="215.71"/>
  <rect class="A0907" fill="#048FC9" height="20.4" id="svg_1979" width="21.1" x="142.64" y="215.71"/>
  <rect class="A0908" fill="#048FC9" height="20.4" id="svg_1980" width="21.07" x="166.34" y="215.71"/>
  <rect class="A0909" fill="#048FC9" height="20.4" id="svg_1981" width="20.4" x="190.34" y="215.71"/>
  <rect class="A0910" fill="#048FC9" height="20.4" id="svg_1982" width="21.07" x="214.17" y="215.71"/>
  <rect class="A0911" fill="#048FC9" height="20.4" id="svg_1983" width="20.4" x="237.34" y="215.71"/>
  <rect class="A0912" fill="#048FC9" height="20.4" id="svg_1984" width="21.81" x="260.43" y="215.71"/>
  <rect class="A0913" fill="#048FC9" height="20.4" id="svg_1985" width="21.73" x="284.01" y="215.71"/>
  <rect class="A1001" fill="#048FC9" height="20" id="svg_1986" width="20" x="0" y="242.91"/>
  <rect class="A1002" fill="#048FC9" height="20.4" id="svg_1987" width="21.73" x="24.5" y="242.91"/>
  <rect class="A1003" fill="#048FC9" height="20.4" id="svg_1988" width="21.1" x="48.27" y="242.91"/>
  <rect class="A1004" fill="#048FC9" height="20.4" id="svg_1989" width="20.4" x="71.34" y="242.91"/>
  <rect class="A1005" fill="#048FC9" height="20.4" id="svg_1990" width="21.07" x="95.17" y="242.91"/>
  <rect class="A1006" fill="#048FC9" height="20.4" id="svg_1991" width="20.4" x="119.34" y="242.91"/>
  <rect class="A1007" fill="#048FC9" height="20.4" id="svg_1992" width="21.07" x="143.01" y="242.91"/>
  <rect class="A1008" fill="#048FC9" height="20.4" id="svg_1993" width="21.07" x="166.17" y="242.91"/>
  <rect class="A1009" fill="#048FC9" height="20.4" id="svg_1994" width="21.07" x="189.67" y="242.91"/>
  <rect class="A1010" fill="#048FC9" height="20.4" id="svg_1995" width="20.4" x="214.34" y="242.91"/>
  <rect class="A1011" fill="#048FC9" height="20.4" id="svg_1996" width="21.07" x="236.84" y="242.91"/>
  <rect class="A1012" fill="#048FC9" height="20.4" id="svg_1997" width="20.4" x="261.34" y="242.91"/>
  <rect class="A1013" fill="#048FC9" height="20.4" id="svg_1998" width="20.4" x="284.34" y="242.91"/>
  <rect class="A1101" fill="#048FC9" height="20" id="svg_1999" width="20" x="0" y="269.92"/>
  <rect class="A1102" fill="#048FC9" height="21.1" id="svg_2000" width="21.1" x="24.81" y="269.57"/>
  <rect class="A1103" fill="#048FC9" height="20.4" id="svg_2001" width="21.81" x="47.92" y="269.92"/>
  <rect class="A1104" fill="#048FC9" height="20.4" id="svg_2002" width="20.4" x="71.9" y="269.92"/>
  <rect class="A1105" fill="#048FC9" height="20.4" id="svg_2003" width="21.07" x="95.73" y="269.92"/>
  <rect class="A1106" fill="#048FC9" height="20.4" id="svg_2004" width="20.4" x="119.23" y="269.92"/>
  <rect class="A1107" fill="#048FC9" height="20.4" id="svg_2005" width="20.4" x="143.4" y="269.92"/>
  <rect class="A1108" fill="#048FC9" height="20.4" id="svg_2006" width="21.07" x="166.23" y="269.92"/>
  <rect class="A1109" fill="#048FC9" height="20.4" id="svg_2007" width="21.73" x="190.07" y="269.92"/>
  <rect class="A1110" fill="#048FC9" height="20.4" id="svg_2008" width="20.4" x="214.9" y="269.92"/>
  <rect class="A1111" fill="#048FC9" height="21.1" id="svg_2009" width="21.77" x="236.9" y="269.57"/>
  <rect class="A1112" fill="#048FC9" height="20.4" id="svg_2010" width="20.4" x="261.4" y="269.92"/>
  <rect class="A1113" fill="#048FC9" height="20.4" id="svg_2011" width="21.07" x="284.07" y="269.92"/>
  <rect class="A1201" fill="#048FC9" height="20" id="svg_2012" width="20" x="0" y="297.06"/>
  <rect class="A1202" fill="#048FC9" height="20.4" id="svg_2013" width="21.81" x="24.46" y="297.06"/>
  <rect class="A1203" fill="#048FC9" height="20.4" id="svg_2014" width="21.1" x="48.27" y="297.06"/>
  <rect class="A1204" fill="#048FC9" height="20.4" id="svg_2015" width="21.07" x="72.23" y="297.06"/>
  <rect class="A1205" fill="#048FC9" height="20.4" id="svg_2016" width="21.81" x="95.4" y="297.06"/>
  <rect class="A1206" fill="#048FC9" height="20.4" id="svg_2017" width="21.73" x="118.57" y="297.06"/>
  <rect class="A1207" fill="#048FC9" height="20.4" id="svg_2018" width="20.4" x="143.4" y="297.06"/>
  <rect class="A1208" fill="#048FC9" height="20.4" id="svg_2019" width="21.07" x="166.23" y="297.06"/>
  <rect class="A1209" fill="#048FC9" height="20.4" id="svg_2020" width="21.07" x="190.23" y="297.06"/>
  <rect class="A1210" fill="#048FC9" height="20.4" id="svg_2021" width="20.4" x="213.9" y="297.06"/>
  <rect class="A1211" fill="#048FC9" height="20.4" id="svg_2022" width="21.07" x="236.9" y="297.06"/>
  <rect class="A1212" fill="#048FC9" height="20.4" id="svg_2023" width="21.81" x="260.49" y="297.06"/>
  <rect class="A1213" fill="#048FC9" height="20.4" id="svg_2024" width="21.07" x="283.9" y="297.06"/>
  <rect class="A1301" fill="#048FC9" height="20" id="svg_2025" width="20" x="0" y="323.69"/>
  <rect class="A1302" fill="#048FC9" height="20.4" id="svg_2026" width="21.1" x="24.81" y="323.69"/>
  <rect class="A1303" fill="#048FC9" height="20.4" id="svg_2027" width="21.07" x="48.28" y="323.69"/>
  <rect class="A1304" fill="#048FC9" height="20.4" id="svg_2028" width="20.4" x="72.07" y="323.69"/>
  <rect class="A1305" fill="#048FC9" height="20.4" id="svg_2029" width="21.73" x="95.03" y="323.69"/>
  <rect class="A1306" fill="#048FC9" height="21.07" id="svg_2030" width="21.07" x="119.23" y="323.35"/>
  <rect class="A1307" fill="#048FC9" height="20.4" id="svg_2031" width="21.73" x="143.23" y="323.69"/>
  <rect class="A1308" fill="#048FC9" height="20.4" id="svg_2032" width="22.4" x="166.57" y="323.69"/>
  <rect class="A1309" fill="#048FC9" height="20.4" id="svg_2033" width="21.73" x="190.23" y="323.69"/>
  <rect class="A1310" fill="#048FC9" height="20.4" id="svg_2034" width="20.4" x="214.07" y="323.69"/>
  <rect class="A1311" fill="#048FC9" height="20.4" id="svg_2035" width="20.4" x="237.4" y="323.69"/>
  <rect class="A1312" fill="#048FC9" height="20.4" id="svg_2036" width="20.4" x="261.23" y="323.69"/>
  <rect class="A1313" fill="#048FC9" height="20.4" id="svg_2037" width="21.07" x="283.9" y="323.69"/>
  <rect class="A1401" fill="#048FC9" height="20" id="svg_2038" width="20" x="0" y="351.27"/>
  <rect class="A1402" fill="#048FC9" height="20.4" id="svg_2042" width="20.4" x="25.16" y="351.27"/>
  <rect class="A1403" fill="#048FC9" height="20.4" id="svg_2046" width="20.4" x="48.62" y="351.27"/>
  <rect class="A1404" fill="#048FC9" height="20.4" id="svg_2050" width="20.4" x="71.9" y="351.27"/>
  <rect class="A1405" fill="#048FC9" height="20.4" id="svg_2051" width="20.4" x="95.07" y="351.27"/>
  <rect class="A1406" fill="#048FC9" height="20.4" id="svg_2052" width="20.4" x="119.23" y="351.27"/>
  <rect class="A1407" fill="#048FC9" height="20.4" id="svg_2053" width="20.4" x="142.9" y="351.27"/>
  <rect class="A1408" fill="#048FC9" height="20.4" id="svg_2054" width="20.4" x="166.23" y="351.27"/>
  <rect class="A1409" fill="#048FC9" height="20.4" id="svg_2055" width="20.4" x="190.4" y="351.27"/>
  <rect class="A1410" fill="#048FC9" height="20.4" id="svg_2056" width="20.4" x="213.4" y="351.27"/>
  <rect class="A1411" fill="#048FC9" height="20.4" id="svg_2057" width="21.81" x="237.4" y="351.27"/>
  <rect class="A1412" fill="#048FC9" height="20.4" id="svg_2058" width="20.4" x="261.4" y="351.27"/>
  <rect class="A1413" fill="#048FC9" height="20.4" id="svg_2059" width="21.73" x="284.07" y="351.27"/>
  <rect class="A1501" fill="#048FC9" height="20" id="svg_2039" width="20" x="0" y="378.03"/>
  <rect class="A1502" fill="#048FC9" height="20.4" id="svg_2043" width="21.1" x="24.81" y="378.03"/>
  <rect class="A1503" fill="#048FC9" height="20.4" id="svg_2047" width="21.07" x="48.28" y="378.03"/>
  <rect class="A1504" fill="#048FC9" height="21.81" id="svg_2060" width="21.1" x="71.57" y="377.32"/>
  <rect class="A1505" fill="#048FC9" height="20.4" id="svg_2061" width="20.4" x="95.23" y="378.03"/>
  <rect class="A1506" fill="#048FC9" height="20.4" id="svg_2062" width="21.07" x="119.23" y="378.03"/>
  <rect class="A1507" fill="#048FC9" height="20.4" id="svg_2063" width="20.4" x="143.4" y="378.03"/>
  <rect class="A1508" fill="#048FC9" height="20" id="svg_2064" width="20" x="166.57" y="377.69"/>
  <rect class="A1509" fill="#048FC9" height="20.4" id="svg_2065" width="20.4" x="190.4" y="378.03"/>
  <rect class="A1510" fill="#048FC9" height="20.4" id="svg_2066" width="20.4" x="213.9" y="378.03"/>
  <rect class="A1511" fill="#048FC9" height="20.4" id="svg_2067" width="21.81" x="236.32" y="378.03"/>
  <rect class="A1512" fill="#048FC9" height="20.4" id="svg_2068" width="20.4" x="261.23" y="378.03"/>
  <rect class="A1513" fill="#048FC9" height="20.4" id="svg_2069" width="21.81" x="284.07" y="378.03"/>
  <rect class="A1601" fill="#048FC9" height="20" id="svg_2040" width="20" x="0" y="405.45"/>
  <rect class="A1602" fill="#048FC9" height="21.1" id="svg_2044" width="21.1" x="24.81" y="405.45"/>
  <rect class="A1603" fill="#048FC9" height="21" id="svg_2048" width="21" x="47.93" y="405.5"/>
  <rect class="A1604" fill="#048FC9" height="21" id="svg_2070" width="21.07" x="72.23" y="405.5"/>
  <rect class="A1605" fill="#048FC9" height="21" id="svg_2071" width="21" x="95.36" y="405.5"/>
  <rect class="A1606" fill="#048FC9" height="21" id="svg_2072" width="21" x="119.23" y="405.5"/>
  <rect class="A1607" fill="#048FC9" height="21.73" id="svg_2073" width="20.4" x="143.23" y="405.13"/>
  <rect class="A1608" fill="#048FC9" height="21.81" id="svg_2074" width="21" x="166.23" y="405.09"/>
  <rect class="A1609" fill="#048FC9" height="22.51" id="svg_2075" width="21.1" x="189.7" y="404.74"/>
  <rect class="A1610" fill="#048FC9" height="21.1" id="svg_2076" width="22.48" x="212.82" y="405.45"/>
  <rect class="A1611" fill="#048FC9" height="21" id="svg_2077" width="21" x="237.03" y="405.5"/>
  <rect class="A1612" fill="#048FC9" height="21" id="svg_2078" width="20.4" x="260.73" y="405.5"/>
  <rect class="A1613" fill="#048FC9" height="21.81" id="svg_2079" width="22.48" x="283.9" y="405.09"/>
  <rect class="A1701" fill="#048FC9" height="20" id="svg_2041" width="20" x="0" y="432.47"/>
  <rect class="A1702" fill="#048FC9" height="20.4" id="svg_2045" width="20.4" x="25.16" y="432.47"/>
  <rect class="A1703" fill="#048FC9" height="21.1" id="svg_2049" width="21.1" x="48.27" y="432.12"/>
  <rect class="A1704" fill="#048FC9" height="21.1" id="svg_2080" width="20.4" x="71.9" y="432.12"/>
  <rect class="A1705" fill="#048FC9" height="21.81" id="svg_2081" width="21.1" x="94.9" y="431.77"/>
  <rect class="A1706" fill="#048FC9" height="21.41" id="svg_2082" width="21.41" x="118.87" y="431.97"/>
  <rect class="A1707" fill="#048FC9" height="21.81" id="svg_2083" width="20.4" x="142.57" y="431.77"/>
  <rect class="A1708" fill="#048FC9" height="21.1" id="svg_2084" width="21" x="165.73" y="432.12"/>
  <rect class="A1709" fill="#048FC9" height="22" id="svg_2085" width="21" x="190.2" y="431.67"/>
  <rect class="A1710" fill="#048FC9" height="21" id="svg_2086" width="21" x="213.32" y="432.17"/>
  <rect class="A1711" fill="#048FC9" height="21.1" id="svg_2087" width="21.1" x="237.2" y="432.12"/>
  <rect class="A1712" fill="#048FC9" height="21.1" id="svg_2088" width="20.4" x="261.4" y="432.12"/>
  <rect class="A1713" fill="#048FC9" height="21.1" id="svg_2089" width="21.81" x="283.37" y="432.12"/>
 </g>
</svg>