<svg width="470" height="457" xmlns="http://www.w3.org/2000/svg" xml:space="preserve" version="1.1" preserveAspectRatio="xMidYMid meet">
 <title>Layer 1</title>

 <g class="layer">
  <title>Layer 1</title>
  <rect y="0.34" x="0.01" width="20.4" id="svg_14" height="20.4" fill="#0992CA" class="B0101"/>
  <rect y="0.34" x="23.33" width="21" id="svg_15" height="20.4" fill="#0992CA" class="B0102"/>
  <rect y="0.34" x="47.87" width="20.4" id="svg_16" height="20.4" fill="#0992CA" class="B0103"/>
  <rect y="0.34" x="70.4" width="20.4" id="svg_17" height="20.4" fill="#0992CA" class="B0104"/>
  <rect y="0.34" x="93.4" width="20.4" id="svg_18" height="20.4" fill="#0992CA" class="B0105"/>
  <rect y="0.34" x="117.4" width="20.4" id="svg_19" height="20.4" fill="#0992CA" class="B0106"/>
  <rect y="0.34" x="141.4" width="21.1" id="svg_20" height="20.4" fill="#0992CA" class="B0107"/>
  <rect y="0.34" x="165.4" width="20.4" id="svg_21" height="20.4" fill="#0992CA" class="B0108"/>
  <rect y="0.34" x="188.2" width="21.1" id="svg_22" height="20.4" fill="#0992CA" class="B0109"/>
  <rect y="0.34" x="213.07" width="20.4" id="svg_23" height="20.4" fill="#0992CA" class="B0110"/>
  <rect y="0.34" x="236.4" width="20.4" id="svg_24" height="20.4" fill="#0992CA" class="B0111"/>
  <rect y="0.34" x="259.53" width="21.1" id="svg_25" height="20.4" fill="#0992CA" class="B0112"/>
  <rect y="0.34" x="283.57" width="20.4" id="svg_26" height="20.4" fill="#0992CA" class="B0113"/>
  <rect y="0.34" x="307.07" width="20.4" id="svg_27" height="20.4" fill="#0992CA" class="B0114"/>
  <rect y="0.34" x="330.9" width="20.4" id="svg_28" height="20.4" fill="#0992CA" class="B0115"/>
  <rect y="0.34" x="353.4" width="20.4" id="svg_29" height="20.4" fill="#0992CA" class="B0116"/>
  <rect y="0.34" x="377.23" width="21" id="svg_30" height="20.4" fill="#0992CA" class="B0117"/>
  <rect y="0" x="400.9" width="20.4" id="svg_31" height="21.07" fill="#0992CA" class="B0118"/>
  <rect y="0.34" x="424.73" width="20.4" id="svg_32" height="20.4" fill="#0992CA" class="B0119"/>
  <rect y="0.34" x="448.4" width="20.4" id="svg_33" height="20.4" fill="#0992CA" class="B0120"/>
  <rect y="27.63" x="0.01" width="20.4" id="svg_34" height="20.4" fill="#0992CA" class="B0201"/>
  <rect y="27.63" x="22.95" width="21.77" id="svg_35" height="20.4" fill="#0992CA" class="B0202"/>
  <rect y="27.63" x="47.87" width="20.4" id="svg_36" height="20.4" fill="#0992CA" class="B0203"/>
  <rect y="27.63" x="70.51" width="21.1" id="svg_37" height="20.4" fill="#0992CA" class="B0204"/>
  <rect y="27.63" x="94.21" width="20.4" id="svg_38" height="20.4" fill="#0992CA" class="B0205"/>
  <rect y="27.63" x="118.38" width="20.4" id="svg_39" height="20.4" fill="#0992CA" class="B0206"/>
  <rect y="27.63" x="141.21" width="21.07" id="svg_40" height="20.4" fill="#0992CA" class="B0207"/>
  <rect y="27.63" x="165.14" width="21.81" id="svg_41" height="20.4" fill="#0992CA" class="B0208"/>
  <rect y="27.63" x="188.15" width="21.1" id="svg_42" height="20.4" fill="#0992CA" class="B0209"/>
  <rect y="27.63" x="212.73" width="21.81" id="svg_43" height="20.4" fill="#0992CA" class="B0210"/>
  <rect y="27.63" x="236.36" width="21.1" id="svg_44" height="20.4" fill="#0992CA" class="B0211"/>
  <rect y="27.63" x="259.31" width="22.43" id="svg_45" height="20.4" fill="#0992CA" class="B0212"/>
  <rect y="27.63" x="283.21" width="20.4" id="svg_46" height="20.4" fill="#0992CA" class="B0213"/>
  <rect y="27.63" x="306.58" width="20.4" id="svg_47" height="20.4" fill="#0992CA" class="B0214"/>
  <rect y="27.63" x="330.46" width="20.4" id="svg_48" height="20.4" fill="#0992CA" class="B0215"/>
  <rect y="27.63" x="354.33" width="20.4" id="svg_49" height="20.4" fill="#0992CA" class="B0216"/>
  <rect y="27.63" x="377.06" width="21.07" id="svg_50" height="20.4" fill="#0992CA" class="B0217"/>
  <rect y="27.63" x="400.46" width="20.4" id="svg_51" height="20.4" fill="#0992CA" class="B0218"/>
  <rect y="27.63" x="424.55" width="20.4" id="svg_52" height="20.4" fill="#0992CA" class="B0219"/>
  <rect y="27.63" x="448.42" width="20.4" id="svg_53" height="20.4" fill="#0992CA" class="B0220"/>
  <rect y="54.48" x="0.01" width="20.4" id="svg_54" height="20.4" fill="#0992CA" class="B0301"/>
  <rect y="54.48" x="23.29" width="21.1" id="svg_55" height="20.4" fill="#0992CA" class="B0302"/>
  <rect y="54.48" x="47.2" width="20.4" id="svg_56" height="20.4" fill="#0992CA" class="B0303"/>
  <rect y="54.48" x="70.46" width="20.4" id="svg_57" height="20.4" fill="#0992CA" class="B0304"/>
  <rect y="54.48" x="94.09" width="20.4" id="svg_58" height="20.4" fill="#0992CA" class="B0305"/>
  <rect y="54.48" x="118.18" width="20.4" id="svg_59" height="20.4" fill="#0992CA" class="B0306"/>
  <rect y="54.48" x="141.36" width="21.1" id="svg_60" height="20.4" fill="#0992CA" class="B0307"/>
  <rect y="54.48" x="165.24" width="20.4" id="svg_61" height="20.4" fill="#0992CA" class="B0308"/>
  <rect y="54.48" x="188.64" width="20.4" id="svg_62" height="20.4" fill="#0992CA" class="B0309"/>
  <rect y="54.48" x="212.27" width="20.4" id="svg_63" height="20.4" fill="#0992CA" class="B0310"/>
  <rect y="54.48" x="236.36" width="20.4" id="svg_64" height="20.4" fill="#0992CA" class="B0311"/>
  <rect y="54.48" x="259.09" width="21.07" id="svg_65" height="20.4" fill="#0992CA" class="B0312"/>
  <rect y="54.48" x="283.64" width="20.4" id="svg_66" height="20.4" fill="#0992CA" class="B0313"/>
  <rect y="54.48" x="306.82" width="20.4" id="svg_67" height="20.4" fill="#0992CA" class="B0314"/>
  <rect y="54.48" x="330.46" width="20.4" id="svg_68" height="20.4" fill="#0992CA" class="B0315"/>
  <rect y="54.48" x="354.55" width="20.4" id="svg_69" height="20.4" fill="#0992CA" class="B0316"/>
  <rect y="54.48" x="377.55" width="20.4" id="svg_70" height="20.4" fill="#0992CA" class="B0317"/>
  <rect y="54.48" x="401.36" width="20.4" id="svg_71" height="20.4" fill="#0992CA" class="B0318"/>
  <rect y="54.48" x="424.51" width="20.4" id="svg_72" height="20.4" fill="#0992CA" class="B0319"/>
  <rect y="54.48" x="449.09" width="20.4" id="svg_73" height="20.4" fill="#0992CA" class="B0320"/>
  <rect y="81.72" x="0.01" width="20.4" id="svg_74" height="20.4" fill="#0992CA" class="B0401"/>
  <rect y="81.37" x="23.29" width="21.1" id="svg_75" height="21.1" fill="#0992CA" class="B0402"/>
  <rect y="81.72" x="47.87" width="20.4" id="svg_76" height="20.4" fill="#0992CA" class="B0403"/>
  <rect y="81.72" x="70.46" width="20.4" id="svg_77" height="20.4" fill="#0992CA" class="B0404"/>
  <rect y="81.72" x="94.33" width="20.4" id="svg_78" height="20.4" fill="#0992CA" class="B0405"/>
  <rect y="81.72" x="117.97" width="20.4" id="svg_79" height="20.4" fill="#0992CA" class="B0406"/>
  <rect y="81.72" x="141.36" width="20.4" id="svg_80" height="20.4" fill="#0992CA" class="B0407"/>
  <rect y="81.72" x="164.58" width="20.4" id="svg_81" height="20.4" fill="#0992CA" class="B0408"/>
  <rect y="81.72" x="188.67" width="20.4" id="svg_82" height="20.4" fill="#0992CA" class="B0409"/>
  <rect y="81.72" x="212.31" width="20.4" id="svg_83" height="20.4" fill="#0992CA" class="B0410"/>
  <rect y="81.72" x="235.91" width="20.4" id="svg_84" height="20.4" fill="#0992CA" class="B0411"/>
  <rect y="81.72" x="259.55" width="20.4" id="svg_85" height="20.4" fill="#0992CA" class="B0412"/>
  <rect y="81.72" x="282.76" width="20.4" id="svg_86" height="20.4" fill="#0992CA" class="B0413"/>
  <rect y="81.72" x="305.69" width="21.73" id="svg_87" height="20.4" fill="#0992CA" class="B0414"/>
  <rect y="81.72" x="330.46" width="20.4" id="svg_88" height="20.4" fill="#0992CA" class="B0415"/>
  <rect y="81.72" x="353.18" width="21" id="svg_89" height="20.4" fill="#0992CA" class="B0416"/>
  <rect y="81.72" x="377.27" width="21" id="svg_90" height="20.4" fill="#0992CA" class="B0417"/>
  <rect y="81.72" x="401.36" width="20.4" id="svg_91" height="20.4" fill="#0992CA" class="B0418"/>
  <rect y="81.72" x="424.09" width="21" id="svg_92" height="20.4" fill="#0992CA" class="B0419"/>
  <rect y="81.72" x="448.18" width="20.4" id="svg_93" height="20.4" fill="#0992CA" class="B0420"/>
  <rect y="108.07" x="0.01" width="20.4" id="svg_94" height="20.4" fill="#0992CA" class="B0501"/>
  <rect y="108.07" x="23.33" width="20.4" id="svg_95" height="20.4" fill="#0992CA" class="B0502"/>
  <rect y="108.07" x="47.87" width="20.4" id="svg_96" height="20.4" fill="#0992CA" class="B0503"/>
  <rect y="108.07" x="70.73" width="21.73" id="svg_97" height="20.4" fill="#0992CA" class="B0504"/>
  <rect y="108.07" x="93.88" width="20.4" id="svg_98" height="20.4" fill="#0992CA" class="B0505"/>
  <rect y="108.07" x="118.18" width="20.4" id="svg_99" height="20.4" fill="#0992CA" class="B0506"/>
  <rect y="108.07" x="141.6" width="20.4" id="svg_100" height="20.4" fill="#0992CA" class="B0507"/>
  <rect y="108.07" x="165.46" width="20.4" id="svg_101" height="20.4" fill="#0992CA" class="B0508"/>
  <rect y="108.27" x="188.42" width="21" id="svg_102" height="20" fill="#0992CA" class="B0509"/>
  <rect y="108.07" x="212.31" width="20.4" id="svg_103" height="20.4" fill="#0992CA" class="B0510"/>
  <rect y="108.07" x="235.91" width="20.4" id="svg_104" height="20.4" fill="#0992CA" class="B0511"/>
  <rect y="108.07" x="259.31" width="21" id="svg_105" height="20.4" fill="#0992CA" class="B0512"/>
  <rect y="108.07" x="283.18" width="20.4" id="svg_106" height="20.4" fill="#0992CA" class="B0513"/>
  <rect y="108.07" x="305.94" width="21.07" id="svg_107" height="20.4" fill="#0992CA" class="B0514"/>
  <rect y="108.07" x="330.46" width="20.4" id="svg_108" height="20.4" fill="#0992CA" class="B0515"/>
  <rect y="108.07" x="354.33" width="20.4" id="svg_109" height="20.4" fill="#0992CA" class="B0516"/>
  <rect y="108.07" x="377.94" width="20.4" id="svg_110" height="20.4" fill="#0992CA" class="B0517"/>
  <rect y="108.07" x="401.6" width="20.4" id="svg_111" height="20.4" fill="#0992CA" class="B0518"/>
  <rect y="108.07" x="424.58" width="20.4" id="svg_112" height="20.4" fill="#0992CA" class="B0519"/>
  <rect y="108.07" x="448.22" width="20.4" id="svg_113" height="20.4" fill="#0992CA" class="B0520"/>
  <rect y="134.94" x="0.01" width="20.4" id="svg_114" height="20.4" fill="#0992CA" class="B0601"/>
  <rect y="134.94" x="23.33" width="21" id="svg_115" height="20.4" fill="#0992CA" class="B0602"/>
  <rect y="134.94" x="47.87" width="20.4" id="svg_116" height="20.4" fill="#0992CA" class="B0603"/>
  <rect y="134.94" x="70.46" width="20.4" id="svg_117" height="20.4" fill="#0992CA" class="B0604"/>
  <rect y="134.94" x="94.09" width="20.4" id="svg_118" height="20.4" fill="#0992CA" class="B0605"/>
  <rect y="134.94" x="118.18" width="20.4" id="svg_119" height="20.4" fill="#0992CA" class="B0606"/>
  <rect y="134.94" x="141.6" width="20.4" id="svg_120" height="20.4" fill="#0992CA" class="B0607"/>
  <rect y="134.94" x="164.58" width="20.4" id="svg_121" height="20.4" fill="#0992CA" class="B0608"/>
  <rect y="134.94" x="187.97" width="21" id="svg_122" height="20.4" fill="#0992CA" class="B0609"/>
  <rect y="134.94" x="211.82" width="20.4" id="svg_123" height="20.4" fill="#0992CA" class="B0610"/>
  <rect y="134.94" x="236.12" width="21.1" id="svg_124" height="20.4" fill="#0992CA" class="B0611"/>
  <rect y="134.94" x="259.13" width="21" id="svg_125" height="20.4" fill="#0992CA" class="B0612"/>
  <rect y="134.94" x="282.49" width="20.4" id="svg_126" height="20.4" fill="#0992CA" class="B0613"/>
  <rect y="134.94" x="306.4" width="20.4" id="svg_127" height="20.4" fill="#0992CA" class="B0614"/>
  <rect y="134.94" x="330" width="20.4" id="svg_128" height="20.4" fill="#0992CA" class="B0615"/>
  <rect y="134.94" x="353.64" width="20.4" id="svg_129" height="20.4" fill="#0992CA" class="B0616"/>
  <rect y="135.14" x="377.48" width="21" id="svg_130" height="20" fill="#0992CA" class="B0617"/>
  <rect y="134.94" x="401.15" width="20.4" id="svg_131" height="20.4" fill="#0992CA" class="B0618"/>
  <rect y="134.94" x="424.33" width="21.07" id="svg_132" height="20.4" fill="#0992CA" class="B0619"/>
  <rect y="134.94" x="448.18" width="20.4" id="svg_133" height="20.4" fill="#0992CA" class="B0620"/>
  <rect y="162.53" x="0.01" width="20.4" id="svg_134" height="20.4" fill="#0992CA" class="B0701"/>
  <rect y="162.53" x="23.33" width="21" id="svg_135" height="20.4" fill="#0992CA" class="B0702"/>
  <rect y="162.53" x="47.87" width="20.4" id="svg_136" height="20.4" fill="#0992CA" class="B0703"/>
  <rect y="162.53" x="70.91" width="20.4" id="svg_137" height="20.4" fill="#0992CA" class="B0704"/>
  <rect y="162.53" x="94.55" width="20.4" id="svg_138" height="20.4" fill="#0992CA" class="B0705"/>
  <rect y="162.53" x="118.18" width="20.4" id="svg_139" height="20.4" fill="#0992CA" class="B0706"/>
  <rect y="162.23" x="141.6" width="20.4" id="svg_140" height="21" fill="#0992CA" class="B0707"/>
  <rect y="162.53" x="165.49" width="20.4" id="svg_141" height="20.4" fill="#0992CA" class="B0708"/>
  <rect y="162.53" x="188.22" width="21" id="svg_142" height="20.4" fill="#0992CA" class="B0709"/>
  <rect y="162.53" x="212.73" width="20.4" id="svg_143" height="20.4" fill="#0992CA" class="B0710"/>
  <rect y="162.53" x="236.36" width="20.4" id="svg_144" height="20.4" fill="#0992CA" class="B0711"/>
  <rect y="162.53" x="259.79" width="21.07" id="svg_145" height="20.4" fill="#0992CA" class="B0712"/>
  <rect y="162.53" x="283.67" width="20.4" id="svg_146" height="20.4" fill="#0992CA" class="B0713"/>
  <rect y="162.53" x="306.4" width="20.4" id="svg_147" height="20.4" fill="#0992CA" class="B0714"/>
  <rect y="162.53" x="330.46" width="20.4" id="svg_148" height="20.4" fill="#0992CA" class="B0715"/>
  <rect y="162.53" x="353.67" width="20.4" id="svg_149" height="20.4" fill="#0992CA" class="B0716"/>
  <rect y="162.53" x="377.31" width="20.4" id="svg_150" height="20.4" fill="#0992CA" class="B0717"/>
  <rect y="162.53" x="401.18" width="20.4" id="svg_151" height="20.4" fill="#0992CA" class="B0718"/>
  <rect y="162.53" x="424.76" width="20.4" id="svg_152" height="20.4" fill="#0992CA" class="B0719"/>
  <rect y="162.53" x="448.22" width="20.4" id="svg_153" height="20.4" fill="#0992CA" class="B0720"/>
  <rect y="189.17" x="0.01" width="20.4" id="svg_154" height="20.4" fill="#0992CA" class="B0801"/>
  <rect y="189.17" x="23.33" width="21" id="svg_155" height="20.4" fill="#0992CA" class="B0802"/>
  <rect y="189.17" x="47.87" width="20.4" id="svg_156" height="20.4" fill="#0992CA" class="B0803"/>
  <rect y="189.17" x="70" width="21" id="svg_157" height="20.4" fill="#0992CA" class="B0804"/>
  <rect y="189.17" x="94.09" width="20.4" id="svg_158" height="20.4" fill="#0992CA" class="B0805"/>
  <rect y="189.17" x="118.88" width="20.4" id="svg_159" height="20.4" fill="#0992CA" class="B0806"/>
  <rect y="189.17" x="141.36" width="21.1" id="svg_160" height="20.4" fill="#0992CA" class="B0807"/>
  <rect y="189.17" x="164.82" width="20.4" id="svg_161" height="20.4" fill="#0992CA" class="B0808"/>
  <rect y="189.17" x="188.42" width="21.81" id="svg_162" height="20.4" fill="#0992CA" class="B0809"/>
  <rect y="189.17" x="212.27" width="20.4" id="svg_163" height="20.4" fill="#0992CA" class="B0810"/>
  <rect y="189.17" x="236.4" width="20.4" id="svg_164" height="20.4" fill="#0992CA" class="B0811"/>
  <rect y="189.17" x="259.31" width="21.07" id="svg_165" height="20.4" fill="#0992CA" class="B0812"/>
  <rect y="189.17" x="282.68" width="21.81" id="svg_166" height="20.4" fill="#0992CA" class="B0813"/>
  <rect y="189.17" x="306.4" width="20.4" id="svg_167" height="20.4" fill="#0992CA" class="B0814"/>
  <rect y="189.17" x="330.24" width="20.4" id="svg_168" height="20.4" fill="#0992CA" class="B0815"/>
  <rect y="189.17" x="354.55" width="20.4" id="svg_169" height="20.4" fill="#0992CA" class="B0816"/>
  <rect y="189.37" x="377.31" width="21" id="svg_170" height="20" fill="#0992CA" class="B0817"/>
  <rect y="189.17" x="400.94" width="20.4" id="svg_171" height="20.4" fill="#0992CA" class="B0818"/>
  <rect y="189.17" x="423.91" width="22.4" id="svg_172" height="20.4" fill="#0992CA" class="B0819"/>
  <rect y="189.17" x="448.42" width="20.4" id="svg_173" height="20.4" fill="#0992CA" class="B0820"/>
  <rect y="215.96" x="0" width="20.4" id="svg_174" height="20.4" fill="#0992CA" class="B0901"/>
  <rect y="215.96" x="23.99" width="20.4" id="svg_175" height="20.4" fill="#0992CA" class="B0902"/>
  <rect y="215.96" x="47.87" width="20.4" id="svg_176" height="20.4" fill="#0992CA" class="B0903"/>
  <rect y="215.96" x="70.91" width="20.4" id="svg_177" height="20.4" fill="#0992CA" class="B0904"/>
  <rect y="215.96" x="93.91" width="20.4" id="svg_178" height="20.4" fill="#0992CA" class="B0905"/>
  <rect y="215.96" x="117.55" width="20.4" id="svg_179" height="20.4" fill="#0992CA" class="B0906"/>
  <rect y="215.96" x="141.6" width="20.4" id="svg_180" height="20.4" fill="#0992CA" class="B0907"/>
  <rect y="215.96" x="165.03" width="20.4" id="svg_181" height="20.4" fill="#0992CA" class="B0908"/>
  <rect y="215.66" x="188" width="21" id="svg_182" height="21" fill="#0992CA" class="B0909"/>
  <rect y="215.96" x="212.06" width="20.4" id="svg_183" height="20.4" fill="#0992CA" class="B0910"/>
  <rect y="215.96" x="236.82" width="20.4" id="svg_184" height="20.4" fill="#0992CA" class="B0911"/>
  <rect y="215.96" x="259.13" width="21.1" id="svg_185" height="20.4" fill="#0992CA" class="B0912"/>
  <rect y="215.96" x="283.18" width="20.4" id="svg_186" height="20.4" fill="#0992CA" class="B0913"/>
  <rect y="215.96" x="306.15" width="21" id="svg_187" height="20.4" fill="#0992CA" class="B0914"/>
  <rect y="215.96" x="329.36" width="20.4" id="svg_188" height="20.4" fill="#0992CA" class="B0915"/>
  <rect y="215.96" x="353.67" width="20.4" id="svg_189" height="20.4" fill="#0992CA" class="B0916"/>
  <rect y="215.96" x="377.3" width="20.4" id="svg_190" height="20.4" fill="#0992CA" class="B0917"/>
  <rect y="215.96" x="400.46" width="21" id="svg_191" height="20.4" fill="#0992CA" class="B0918"/>
  <rect y="215.96" x="424.55" width="21.1" id="svg_192" height="20.4" fill="#0992CA" class="B0919"/>
  <rect y="215.96" x="448.42" width="20.4" id="svg_193" height="20.4" fill="#0992CA" class="B0920"/>
  <rect y="243.16" x="0" width="20.4" id="svg_194" height="20.4" fill="#0992CA" class="B1001"/>
  <rect y="243.16" x="22.59" width="21.81" id="svg_195" height="20.4" fill="#0992CA" class="B1002"/>
  <rect y="243.16" x="47.87" width="20.4" id="svg_196" height="20.4" fill="#0992CA" class="B1003"/>
  <rect y="243.16" x="70.46" width="20.4" id="svg_197" height="20.4" fill="#0992CA" class="B1004"/>
  <rect y="243.16" x="93.88" width="20.4" id="svg_198" height="20.4" fill="#0992CA" class="B1005"/>
  <rect y="243.16" x="118.4" width="20.4" id="svg_199" height="20.4" fill="#0992CA" class="B1006"/>
  <rect y="243.16" x="141.6" width="20.4" id="svg_200" height="20.4" fill="#0992CA" class="B1007"/>
  <rect y="243.16" x="165.46" width="20.4" id="svg_201" height="20.4" fill="#0992CA" class="B1008"/>
  <rect y="243.16" x="188.85" width="20.4" id="svg_202" height="20.4" fill="#0992CA" class="B1009"/>
  <rect y="243.16" x="212.31" width="20.4" id="svg_203" height="20.4" fill="#0992CA" class="B1010"/>
  <rect y="243.16" x="236.36" width="20.4" id="svg_204" height="20.4" fill="#0992CA" class="B1011"/>
  <rect y="243.16" x="259.79" width="20.4" id="svg_205" height="20.4" fill="#0992CA" class="B1012"/>
  <rect y="243.16" x="283.18" width="20.4" id="svg_206" height="20.4" fill="#0992CA" class="B1013"/>
  <rect y="243.16" x="306.15" width="21" id="svg_207" height="20.4" fill="#0992CA" class="B1014"/>
  <rect y="243.16" x="330.91" width="20.4" id="svg_208" height="20.4" fill="#0992CA" class="B1015"/>
  <rect y="243.16" x="354.3" width="21.1" id="svg_209" height="20.4" fill="#0992CA" class="B1016"/>
  <rect y="243.16" x="377.48" width="21" id="svg_210" height="20.4" fill="#0992CA" class="B1017"/>
  <rect y="243.16" x="401.6" width="20.4" id="svg_211" height="20.4" fill="#0992CA" class="B1018"/>
  <rect y="243.16" x="423.88" width="21" id="svg_212" height="20.4" fill="#0992CA" class="B1019"/>
  <rect y="243.16" x="447.73" width="20.4" id="svg_213" height="20.4" fill="#0992CA" class="B1020"/>
  <rect y="270.17" x="0.01" width="20.4" id="svg_214" height="20.4" fill="#0992CA" class="B1101"/>
  <rect y="270.17" x="23.29" width="21.1" id="svg_215" height="20.4" fill="#0992CA" class="B1102"/>
  <rect y="270.17" x="47.2" width="20.4" id="svg_216" height="20.4" fill="#0992CA" class="B1103"/>
  <rect y="270.17" x="70.49" width="20.4" id="svg_217" height="20.4" fill="#0992CA" class="B1104"/>
  <rect y="270.17" x="94.09" width="20.4" id="svg_218" height="20.4" fill="#0992CA" class="B1105"/>
  <rect y="270.17" x="118.64" width="20.4" id="svg_219" height="20.4" fill="#0992CA" class="B1106"/>
  <rect y="270.17" x="141.6" width="20.4" id="svg_220" height="20.4" fill="#0992CA" class="B1107"/>
  <rect y="270.17" x="165.46" width="20.4" id="svg_221" height="20.4" fill="#0992CA" class="B1108"/>
  <rect y="270.17" x="188.64" width="20.4" id="svg_222" height="20.4" fill="#0992CA" class="B1109"/>
  <rect y="270.17" x="212.73" width="20.4" id="svg_223" height="20.4" fill="#0992CA" class="B1110"/>
  <rect y="270.17" x="236.82" width="20.4" id="svg_224" height="20.4" fill="#0992CA" class="B1111"/>
  <rect y="270.17" x="259.09" width="21.1" id="svg_225" height="20.4" fill="#0992CA" class="B1112"/>
  <rect y="270.17" x="283.22" width="20.4" id="svg_226" height="20.4" fill="#0992CA" class="B1113"/>
  <rect y="270.17" x="306.36" width="20.4" id="svg_227" height="20.4" fill="#0992CA" class="B1114"/>
  <rect y="270.17" x="330.49" width="20.4" id="svg_228" height="20.4" fill="#0992CA" class="B1115"/>
  <rect y="270.17" x="353.67" width="20.4" id="svg_229" height="20.4" fill="#0992CA" class="B1116"/>
  <rect y="269.84" x="377.09" width="21.07" id="svg_230" height="21.07" fill="#0992CA" class="B1117"/>
  <rect y="270.17" x="400.46" width="20.4" id="svg_231" height="20.4" fill="#0992CA" class="B1118"/>
  <rect y="270.17" x="424.58" width="20.4" id="svg_232" height="20.4" fill="#0992CA" class="B1119"/>
  <rect y="270.17" x="448.18" width="20.4" id="svg_233" height="20.4" fill="#0992CA" class="B1120"/>
  <rect y="297.31" x="0.01" width="20.4" id="svg_234" height="20.4" fill="#0992CA" class="B1201"/>
  <rect y="297.31" x="23.33" width="20.4" id="svg_235" height="20.4" fill="#0992CA" class="B1202"/>
  <rect y="297.31" x="47.2" width="20.4" id="svg_236" height="20.4" fill="#0992CA" class="B1203"/>
  <rect y="297.31" x="70.24" width="21.07" id="svg_237" height="20.4" fill="#0992CA" class="B1204"/>
  <rect y="297.31" x="94.12" width="20.4" id="svg_238" height="20.4" fill="#0992CA" class="B1205"/>
  <rect y="297.31" x="117.73" width="20.4" id="svg_239" height="20.4" fill="#0992CA" class="B1206"/>
  <rect y="297.31" x="141.6" width="20.4" id="svg_240" height="20.4" fill="#0992CA" class="B1207"/>
  <rect y="297.31" x="165.48" width="20.4" id="svg_241" height="20.4" fill="#0992CA" class="B1208"/>
  <rect y="297.31" x="188.88" width="20.4" id="svg_242" height="20.4" fill="#0992CA" class="B1209"/>
  <rect y="297.31" x="212.27" width="20.4" id="svg_243" height="20.4" fill="#0992CA" class="B1210"/>
  <rect y="297.31" x="235.91" width="20.4" id="svg_244" height="20.4" fill="#0992CA" class="B1211"/>
  <rect y="297.31" x="259.3" width="21" id="svg_245" height="20.4" fill="#0992CA" class="B1212"/>
  <rect y="297.31" x="283.42" width="20.4" id="svg_246" height="20.4" fill="#0992CA" class="B1213"/>
  <rect y="297.31" x="305.93" width="21" id="svg_247" height="20.4" fill="#0992CA" class="B1214"/>
  <rect y="297.31" x="330.46" width="20.4" id="svg_248" height="20.4" fill="#0992CA" class="B1215"/>
  <rect y="297.31" x="353" width="21.07" id="svg_249" height="20.4" fill="#0992CA" class="B1216"/>
  <rect y="297.31" x="377.3" width="20.4" id="svg_250" height="20.4" fill="#0992CA" class="B1217"/>
  <rect y="297.31" x="401.82" width="20.4" id="svg_251" height="20.4" fill="#0992CA" class="B1218"/>
  <rect y="297.31" x="424.09" width="21" id="svg_252" height="20.4" fill="#0992CA" class="B1219"/>
  <rect y="297.31" x="447.55" width="21" id="svg_253" height="20.4" fill="#0992CA" class="B1220"/>
  <rect y="323.94" x="0.01" width="20.4" id="svg_254" height="20.4" fill="#0992CA" class="B1301"/>
  <rect y="323.94" x="23.33" width="20.4" id="svg_255" height="20.4" fill="#0992CA" class="B1302"/>
  <rect y="323.94" x="47.87" width="20.4" id="svg_256" height="20.4" fill="#0992CA" class="B1303"/>
  <rect y="323.94" x="70.02" width="21" id="svg_257" height="20.4" fill="#0992CA" class="B1304"/>
  <rect y="323.94" x="94.33" width="20.4" id="svg_258" height="20.4" fill="#0992CA" class="B1305"/>
  <rect y="323.94" x="117.73" width="20.4" id="svg_259" height="20.4" fill="#0992CA" class="B1306"/>
  <rect y="323.94" x="141.58" width="20.4" id="svg_260" height="20.4" fill="#0992CA" class="B1307"/>
  <rect y="323.94" x="164.55" width="20.4" id="svg_261" height="20.4" fill="#0992CA" class="B1308"/>
  <rect y="323.94" x="188.85" width="20.4" id="svg_262" height="20.4" fill="#0992CA" class="B1309"/>
  <rect y="323.94" x="211.6" width="20.4" id="svg_263" height="20.4" fill="#0992CA" class="B1310"/>
  <rect y="323.94" x="236.36" width="20.4" id="svg_264" height="20.4" fill="#0992CA" class="B1311"/>
  <rect y="323.94" x="259.58" width="20.4" id="svg_265" height="20.4" fill="#0992CA" class="B1312"/>
  <rect y="323.94" x="283.18" width="20.4" id="svg_266" height="20.4" fill="#0992CA" class="B1313"/>
  <rect y="323.94" x="306.6" width="20.4" id="svg_267" height="20.4" fill="#0992CA" class="B1314"/>
  <rect y="323.94" x="330.91" width="20.4" id="svg_268" height="20.4" fill="#0992CA" class="B1315"/>
  <rect y="323.94" x="354.55" width="20.4" id="svg_269" height="20.4" fill="#0992CA" class="B1316"/>
  <rect y="323.94" x="377.27" width="21" id="svg_270" height="20.4" fill="#0992CA" class="B1317"/>
  <rect y="323.94" x="401.36" width="20.4" id="svg_271" height="20.4" fill="#0992CA" class="B1318"/>
  <rect y="323.94" x="424.09" width="21.1" id="svg_272" height="20.4" fill="#0992CA" class="B1319"/>
  <rect y="323.94" x="448.18" width="20.4" id="svg_273" height="20.4" fill="#0992CA" class="B1320"/>
  <rect y="351.52" x="0" width="20.4" id="svg_274" height="20.4" fill="#0992CA" class="B1401"/>
  <rect y="351.52" x="23.29" width="21.1" id="svg_275" height="20.4" fill="#0992CA" class="B1402"/>
  <rect y="351.52" x="47.2" width="20.4" id="svg_276" height="20.4" fill="#0992CA" class="B1403"/>
  <rect y="351.52" x="70.49" width="20.4" id="svg_277" height="20.4" fill="#0992CA" class="B1404"/>
  <rect y="351.52" x="94.33" width="20.4" id="svg_278" height="20.4" fill="#0992CA" class="B1405"/>
  <rect y="351.52" x="117.51" width="20.4" id="svg_279" height="20.4" fill="#0992CA" class="B1406"/>
  <rect y="351.52" x="141.6" width="20.4" id="svg_280" height="20.4" fill="#0992CA" class="B1407"/>
  <rect y="351.52" x="165.24" width="20.4" id="svg_281" height="20.4" fill="#0992CA" class="B1408"/>
  <rect y="351.52" x="187.97" width="21.1" id="svg_282" height="20.4" fill="#0992CA" class="B1409"/>
  <rect y="351.52" x="212.06" width="20.4" id="svg_283" height="20.4" fill="#0992CA" class="B1410"/>
  <rect y="351.52" x="235.24" width="21.1" id="svg_284" height="20.4" fill="#0992CA" class="B1411"/>
  <rect y="351.52" x="259.55" width="20.4" id="svg_285" height="20.4" fill="#0992CA" class="B1412"/>
  <rect y="351.52" x="282.97" width="20.4" id="svg_286" height="20.4" fill="#0992CA" class="B1413"/>
  <rect y="351.52" x="307.03" width="20.4" id="svg_287" height="20.4" fill="#0992CA" class="B1414"/>
  <rect y="351.52" x="329.33" width="21.81" id="svg_288" height="20.4" fill="#0992CA" class="B1415"/>
  <rect y="351.52" x="353.67" width="20.4" id="svg_289" height="20.4" fill="#0992CA" class="B1416"/>
  <rect y="351.52" x="377.73" width="20.4" id="svg_290" height="20.4" fill="#0992CA" class="B1417"/>
  <rect y="351.52" x="400.69" width="20.4" id="svg_291" height="20.4" fill="#0992CA" class="B1418"/>
  <rect y="351.52" x="424.33" width="20.4" id="svg_292" height="20.4" fill="#0992CA" class="B1419"/>
  <rect y="351.52" x="447.97" width="20.4" id="svg_293" height="20.4" fill="#0992CA" class="B1420"/>
  <rect y="378.28" x="0" width="20.4" id="svg_294" height="20.4" fill="#0992CA" class="B1501"/>
  <rect y="378.28" x="23.66" width="21.07" id="svg_295" height="20.4" fill="#0992CA" class="B1502"/>
  <rect y="378.28" x="47.2" width="20.4" id="svg_296" height="20.4" fill="#0992CA" class="B1503"/>
  <rect y="378.28" x="70.46" width="20.4" id="svg_297" height="20.4" fill="#0992CA" class="B1504"/>
  <rect y="378.28" x="94.09" width="20.4" id="svg_298" height="20.4" fill="#0992CA" class="B1505"/>
  <rect y="378.28" x="118.64" width="20.4" id="svg_299" height="20.4" fill="#0992CA" class="B1506"/>
  <rect y="378.28" x="141.6" width="20.4" id="svg_300" height="20.4" fill="#0992CA" class="B1507"/>
  <rect y="378.28" x="165.24" width="20.4" id="svg_301" height="20.4" fill="#0992CA" class="B1508"/>
  <rect y="378.28" x="187.97" width="21" id="svg_302" height="20.4" fill="#0992CA" class="B1509"/>
  <rect y="378.28" x="211.82" width="20.4" id="svg_303" height="20.4" fill="#0992CA" class="B1510"/>
  <rect y="378.28" x="235.91" width="20.4" id="svg_304" height="20.4" fill="#0992CA" class="B1511"/>
  <rect y="378.28" x="259.3" width="21.1" id="svg_305" height="20.4" fill="#0992CA" class="B1512"/>
  <rect y="378.28" x="283.18" width="20.4" id="svg_306" height="20.4" fill="#0992CA" class="B1513"/>
  <rect y="378.48" x="305.91" width="21" id="svg_307" height="20" fill="#0992CA" class="B1514"/>
  <rect y="378.28" x="330.91" width="20.4" id="svg_308" height="20.4" fill="#0992CA" class="B1515"/>
  <rect y="378.28" x="353.88" width="20.4" id="svg_309" height="20.4" fill="#0992CA" class="B1516"/>
  <rect y="378.28" x="377.73" width="20.4" id="svg_310" height="20.4" fill="#0992CA" class="B1517"/>
  <rect y="378.28" x="401.36" width="20.4" id="svg_311" height="20.4" fill="#0992CA" class="B1518"/>
  <rect y="378.28" x="424.3" width="21.1" id="svg_312" height="20.4" fill="#0992CA" class="B1519"/>
  <rect y="378.28" x="448.64" width="20.4" id="svg_313" height="20.4" fill="#0992CA" class="B1520"/>
  <rect y="405.75" x="0.01" width="20.4" id="svg_314" height="21" fill="#0992CA" class="B1601"/>
  <rect y="405.75" x="23.29" width="21.1" id="svg_315" height="21" fill="#0992CA" class="B1602"/>
  <rect y="405.75" x="47.2" width="20.4" id="svg_316" height="21" fill="#0992CA" class="B1603"/>
  <rect y="405.75" x="70.03" width="21" id="svg_317" height="21" fill="#0992CA" class="B1604"/>
  <rect y="406.05" x="94.79" width="20.4" id="svg_318" height="20.4" fill="#0992CA" class="B1605"/>
  <rect y="405.75" x="117.27" width="21" id="svg_319" height="21" fill="#0992CA" class="B1606"/>
  <rect y="405.7" x="141.36" width="21.81" id="svg_320" height="21.1" fill="#0992CA" class="B1607"/>
  <rect y="406.05" x="165.24" width="21.1" id="svg_321" height="20.4" fill="#0992CA" class="B1608"/>
  <rect y="405.25" x="188.18" width="22" id="svg_322" height="22" fill="#0992CA" class="B1609"/>
  <rect y="405.75" x="212.06" width="21.1" id="svg_323" height="21" fill="#0992CA" class="B1610"/>
  <rect y="406.05" x="235.95" width="20.4" id="svg_324" height="20.4" fill="#0992CA" class="B1611"/>
  <rect y="406.05" x="259.76" width="20.4" id="svg_325" height="20.4" fill="#0992CA" class="B1612"/>
  <rect y="405.75" x="282.97" width="20.4" id="svg_326" height="21" fill="#0992CA" class="B1613"/>
  <rect y="405.7" x="306.12" width="21.1" id="svg_327" height="21.1" fill="#0992CA" class="B1614"/>
  <rect y="405.7" x="328.63" width="21.81" id="svg_328" height="21.1" fill="#0992CA" class="B1615"/>
  <rect y="406.05" x="353.42" width="20.4" id="svg_329" height="20.4" fill="#0992CA" class="B1616"/>
  <rect y="405.75" x="377.27" width="21" id="svg_330" height="21" fill="#0992CA" class="B1617"/>
  <rect y="405.75" x="401.15" width="20.4" id="svg_331" height="21" fill="#0992CA" class="B1618"/>
  <rect y="405.25" x="424.06" width="21.1" id="svg_332" height="22" fill="#0992CA" class="B1619"/>
  <rect y="406.05" x="447.51" width="20.4" id="svg_333" height="20.4" fill="#0992CA" class="B1620"/>
  <rect y="432.42" x="0.01" width="20.4" id="svg_334" height="21" fill="#0992CA" class="B1701"/>
  <rect y="432.02" x="23.29" width="21.81" id="svg_335" height="21.81" fill="#0992CA" class="B1702"/>
  <rect y="432.42" x="47.17" width="21.1" id="svg_336" height="21" fill="#0992CA" class="B1703"/>
  <rect y="432.06" x="70.46" width="21" id="svg_337" height="21.73" fill="#0992CA" class="B1704"/>
  <rect y="432.42" x="93.67" width="21" id="svg_338" height="21" fill="#0992CA" class="B1705"/>
  <rect y="432.42" x="117.51" width="20.4" id="svg_339" height="21" fill="#0992CA" class="B1706"/>
  <rect y="432.42" x="141.36" width="21" id="svg_340" height="21" fill="#0992CA" class="B1707"/>
  <rect y="432.42" x="164.36" width="20.4" id="svg_341" height="21" fill="#0992CA" class="B1708"/>
  <rect y="432.42" x="188.42" width="20.4" id="svg_342" height="21" fill="#0992CA" class="B1709"/>
  <rect y="432.42" x="212.06" width="20.4" id="svg_343" height="21" fill="#0992CA" class="B1710"/>
  <rect y="432.42" x="235.91" width="20.4" id="svg_344" height="21" fill="#0992CA" class="B1711"/>
  <rect y="432.72" x="259.55" width="20.4" id="svg_345" height="20.4" fill="#0992CA" class="B1712"/>
  <rect y="432.72" x="283.18" width="20.4" id="svg_346" height="20.4" fill="#0992CA" class="B1713"/>
  <rect y="432.37" x="305.94" width="21.1" id="svg_347" height="21.1" fill="#0992CA" class="B1714"/>
  <rect y="432.42" x="330" width="20.4" id="svg_348" height="21" fill="#0992CA" class="B1715"/>
  <rect y="432.42" x="353.64" width="20.4" id="svg_349" height="21" fill="#0992CA" class="B1716"/>
  <rect y="432.42" x="376.99" width="21.1" id="svg_350" height="21" fill="#0992CA" class="B1717"/>
  <rect y="432.37" x="401.57" width="20.4" id="svg_351" height="21.1" fill="#0992CA" class="B1718"/>
  <rect y="432.37" x="424.55" width="20.4" id="svg_352" height="21.1" fill="#0992CA" class="B1719"/>
  <rect y="432.37" x="447.51" width="20.4" id="svg_353" height="21.1" fill="#0992CA" class="B1720"/>
  <rect y="720.75" x="440.46" width="20" id="svg_805" height="20" fill="#048FC9" class="E0801"/>
  <rect y="720.75" x="463.18" width="20" id="svg_806" height="20" fill="#048FC9" class="E0802"/>
  <rect y="720.75" x="487.97" width="20" id="svg_807" height="20" fill="#048FC9" class="E0803"/>
  <rect y="720.75" x="511.36" width="20" id="svg_808" height="20" fill="#048FC9" class="E0804"/>
  <rect y="720.75" x="535.24" width="20" id="svg_809" height="20" fill="#048FC9" class="E0805"/>
  <rect y="720.75" x="558.42" width="20" id="svg_810" height="20" fill="#048FC9" class="E0806"/>
  <rect y="720.75" x="582.27" width="20" id="svg_811" height="20" fill="#048FC9" class="E0807"/>
  <rect y="720.75" x="606.15" width="20" id="svg_812" height="20" fill="#048FC9" class="E0808"/>
  <rect y="720.75" x="629.55" width="20" id="svg_813" height="20" fill="#048FC9" class="E0809"/>
  <rect y="720.75" x="653.18" width="20" id="svg_814" height="20" fill="#048FC9" class="E0810"/>
  <rect y="720.75" x="677.27" width="20" id="svg_815" height="20" fill="#048FC9" class="E0811"/>
  <rect y="720.75" x="700.69" width="20" id="svg_816" height="20" fill="#048FC9" class="E0812"/>
  <rect y="720.75" x="724.55" width="20" id="svg_817" height="20" fill="#048FC9" class="E0813"/>
 </g>
</svg>