<svg width="305" height="454" xmlns="http://www.w3.org/2000/svg" xml:space="preserve" version="1.1" preserveAspectRatio="xMidYMid meet">
 <title>Layer 1</title>

 <g class="layer">
  <title>Layer 1</title>
  <rect y="0" x="1.36001" width="20.4" id="svg_354" height="20.4" fill="#0992CA" class="C0101"/>
  <rect y="0" x="25.00001" width="20.4" id="svg_355" height="20.4" fill="#0992CA" class="C0102"/>
  <rect y="0" x="47.94001" width="20.4" id="svg_356" height="20.4" fill="#0992CA" class="C0103"/>
  <rect y="0" x="71.60001" width="20.4" id="svg_357" height="20.4" fill="#0992CA" class="C0104"/>
  <rect y="0" x="95.21001" width="20.4" id="svg_358" height="20.4" fill="#0992CA" class="C0105"/>
  <rect y="0" x="118.85001" width="20.4" id="svg_359" height="20.4" fill="#0992CA" class="C0106"/>
  <rect y="0" x="142.51001" width="20.4" id="svg_360" height="20.4" fill="#0992CA" class="C0107"/>
  <rect y="0" x="165.91001" width="20.4" id="svg_361" height="20.4" fill="#0992CA" class="C0108"/>
  <rect y="0" x="189.78001" width="20.4" id="svg_362" height="20.4" fill="#0992CA" class="C0109"/>
  <rect y="27.29" x="1.36001" width="20.4" id="svg_363" height="20.4" fill="#0992CA" class="C0201"/>
  <rect y="27.29" x="25.00001" width="20.4" id="svg_364" height="20.4" fill="#0992CA" class="C0202"/>
  <rect y="27.29" x="47.96001" width="20.4" id="svg_365" height="20.4" fill="#0992CA" class="C0203"/>
  <rect y="27.29" x="71.81001" width="20.4" id="svg_366" height="20.4" fill="#0992CA" class="C0204"/>
  <rect y="27.29" x="95.42001" width="20.4" id="svg_367" height="20.4" fill="#0992CA" class="C0205"/>
  <rect y="27.29" x="118.84001" width="21" id="svg_368" height="20.4" fill="#0992CA" class="C0206"/>
  <rect y="27.29" x="142.09001" width="20.4" id="svg_369" height="20.4" fill="#0992CA" class="C0207"/>
  <rect y="27.29" x="166.12001" width="20.4" id="svg_370" height="20.4" fill="#0992CA" class="C0208"/>
  <rect y="27.29" x="190.00001" width="20.4" id="svg_371" height="20.4" fill="#0992CA" class="C0209"/>
  <rect y="27.29" x="214.09001" width="20.4" id="svg_372" height="20.4" fill="#0992CA" class="C0210"/>
  <rect y="54.14" x="0.45001" width="20.4" id="svg_373" height="20.4" fill="#0992CA" class="C0301"/>
  <rect y="54.14" x="25.00001" width="20.4" id="svg_374" height="20.4" fill="#0992CA" class="C0302"/>
  <rect y="53.8" x="47.51001" width="21.07" id="svg_375" height="21.07" fill="#0992CA" class="C0303"/>
  <rect y="54.14" x="71.81001" width="20.4" id="svg_376" height="20.4" fill="#0992CA" class="C0304"/>
  <rect y="54.14" x="95.42001" width="20.4" id="svg_377" height="20.4" fill="#0992CA" class="C0305"/>
  <rect y="54.14" x="118.87001" width="20.4" id="svg_378" height="20.4" fill="#0992CA" class="C0306"/>
  <rect y="54.14" x="143.18001" width="20.4" id="svg_379" height="20.4" fill="#0992CA" class="C0307"/>
  <rect y="54.14" x="166.58001" width="20.4" id="svg_380" height="20.4" fill="#0992CA" class="C0308"/>
  <rect y="54.14" x="189.58001" width="20.4" id="svg_381" height="20.4" fill="#0992CA" class="C0309"/>
  <rect y="54.14" x="213.21001" width="20.4" id="svg_382" height="20.4" fill="#0992CA" class="C0310"/>
  <rect y="81.38" x="0.91001" width="20.4" id="svg_383" height="20.4" fill="#0992CA" class="C0401"/>
  <rect y="81.38" x="25.00001" width="20.4" id="svg_384" height="20.4" fill="#0992CA" class="C0402"/>
  <rect y="81.38" x="47.94001" width="20.4" id="svg_385" height="20.4" fill="#0992CA" class="C0403"/>
  <rect y="81.38" x="71.60001" width="20.4" id="svg_386" height="20.4" fill="#0992CA" class="C0404"/>
  <rect y="81.38" x="94.78001" width="21" id="svg_387" height="20.4" fill="#0992CA" class="C0405"/>
  <rect y="81.38" x="118.67001" width="20.4" id="svg_388" height="20.4" fill="#0992CA" class="C0406"/>
  <rect y="81.38" x="143.18001" width="20.4" id="svg_389" height="20.4" fill="#0992CA" class="C0407"/>
  <rect y="81.38" x="165.45001" width="21.07" id="svg_390" height="20.4" fill="#0992CA" class="C0408"/>
  <rect y="81.38" x="189.78001" width="20.4" id="svg_391" height="20.4" fill="#0992CA" class="C0409"/>
  <rect y="81.38" x="213.18001" width="20.4" id="svg_392" height="20.4" fill="#0992CA" class="C0410"/>
  <rect y="81.38" x="236.81001" width="21.73" id="svg_393" height="20.4" fill="#0992CA" class="C0411"/>
  <rect y="107.73" x="0.45001" width="20.4" id="svg_394" height="20.4" fill="#0992CA" class="C0501"/>
  <rect y="107.73" x="25.21001" width="20.4" id="svg_395" height="20.4" fill="#0992CA" class="C0502"/>
  <rect y="107.73" x="47.72001" width="21" id="svg_396" height="20.4" fill="#0992CA" class="C0503"/>
  <rect y="107.73" x="71.60001" width="20.4" id="svg_397" height="20.4" fill="#0992CA" class="C0504"/>
  <rect y="107.73" x="94.78001" width="21.73" id="svg_398" height="20.4" fill="#0992CA" class="C0505"/>
  <rect y="107.73" x="119.09001" width="21" id="svg_399" height="20.4" fill="#0992CA" class="C0506"/>
  <rect y="107.73" x="143.18001" width="20.4" id="svg_400" height="20.4" fill="#0992CA" class="C0507"/>
  <rect y="107.73" x="165.91001" width="20.4" id="svg_401" height="20.4" fill="#0992CA" class="C0508"/>
  <rect y="107.73" x="189.54001" width="20.4" id="svg_402" height="20.4" fill="#0992CA" class="C0509"/>
  <rect y="107.73" x="214.09001" width="20.4" id="svg_403" height="20.4" fill="#0992CA" class="C0510"/>
  <rect y="107.73" x="237.27001" width="20.4" id="svg_404" height="20.4" fill="#0992CA" class="C0511"/>
  <rect y="107.73" x="260.91001" width="20.4" id="svg_405" height="20.4" fill="#0992CA" class="C0512"/>
  <rect y="134.6" x="0.45001" width="20.4" id="svg_406" height="20.4" fill="#0992CA" class="C0601"/>
  <rect y="134.6" x="24.54001" width="20.4" id="svg_407" height="20.4" fill="#0992CA" class="C0602"/>
  <rect y="134.6" x="48.39001" width="20.4" id="svg_408" height="20.4" fill="#0992CA" class="C0603"/>
  <rect y="134.6" x="72.27001" width="20.4" id="svg_410" height="20.4" fill="#0992CA" class="C0604"/>
  <rect y="134.6" x="95.00001" width="21.73" id="svg_411" height="20.4" fill="#0992CA" class="C0605"/>
  <rect y="134.6" x="119.30001" width="20.4" id="svg_412" height="20.4" fill="#0992CA" class="C0606"/>
  <rect y="134.27" x="143.18001" width="20.4" id="svg_413" height="21.07" fill="#0992CA" class="C0607"/>
  <rect y="134.6" x="165.91001" width="20.4" id="svg_414" height="20.4" fill="#0992CA" class="C0608"/>
  <rect y="134.6" x="190.45001" width="20.4" id="svg_415" height="20.4" fill="#0992CA" class="C0609"/>
  <rect y="134.6" x="213.42001" width="20.4" id="svg_416" height="20.4" fill="#0992CA" class="C0610"/>
  <rect y="134.6" x="236.81001" width="20.4" id="svg_417" height="20.4" fill="#0992CA" class="C0611"/>
  <rect y="134.6" x="260.91001" width="20.4" id="svg_418" height="20.4" fill="#0992CA" class="C0612"/>
  <rect y="162.19" x="0.91001" width="20.4" id="svg_419" height="20.4" fill="#0992CA" class="C0701"/>
  <rect y="162.19" x="24.54001" width="20.4" id="svg_420" height="20.4" fill="#0992CA" class="C0702"/>
  <rect y="162.19" x="47.72001" width="21" id="svg_421" height="20.4" fill="#0992CA" class="C0703"/>
  <rect y="162.19" x="71.81001" width="20.4" id="svg_422" height="20.4" fill="#0992CA" class="C0704"/>
  <rect y="162.19" x="95.00001" width="20.4" id="svg_423" height="20.4" fill="#0992CA" class="C0705"/>
  <rect y="162.19" x="119.09001" width="20.4" id="svg_424" height="20.4" fill="#0992CA" class="C0706"/>
  <rect y="162.19" x="142.51001" width="20.4" id="svg_425" height="20.4" fill="#0992CA" class="C0707"/>
  <rect y="162.19" x="166.12001" width="20.4" id="svg_426" height="20.4" fill="#0992CA" class="C0708"/>
  <rect y="162.19" x="190.00001" width="20.4" id="svg_427" height="20.4" fill="#0992CA" class="C0709"/>
  <rect y="162.19" x="214.09001" width="20.4" id="svg_428" height="20.4" fill="#0992CA" class="C0710"/>
  <rect y="162.19" x="237.27001" width="20.4" id="svg_429" height="20.4" fill="#0992CA" class="C0711"/>
  <rect y="162.19" x="260.91001" width="20.4" id="svg_430" height="20.4" fill="#0992CA" class="C0712"/>
  <rect y="189.04" x="0.69001" width="19.97" id="svg_431" height="19.97" fill="#0992CA" class="C0801"/>
  <rect y="188.57" x="25.00001" width="20.64" id="svg_432" height="20.91" fill="#0992CA" class="C0802"/>
  <rect y="188.57" x="47.94001" width="20.91" id="svg_433" height="20.91" fill="#0992CA" class="C0803"/>
  <rect y="188.83" x="72.05001" width="20.4" id="svg_434" height="20.4" fill="#0992CA" class="C0804"/>
  <rect y="189.03" x="94.78001" width="21.33" id="svg_435" height="20" fill="#0992CA" class="C0805"/>
  <rect y="188.8" x="119.09001" width="21.12" id="svg_436" height="20.45" fill="#0992CA" class="C0806"/>
  <rect y="188.83" x="142.94001" width="20.4" id="svg_437" height="20.4" fill="#0992CA" class="C0807"/>
  <rect y="189.15" x="165.70001" width="22" id="svg_438" height="19.76" fill="#0992CA" class="C0808"/>
  <rect y="188.83" x="189.54001" width="21.07" id="svg_439" height="20.4" fill="#0992CA" class="C0809"/>
  <rect y="189.15" x="214.54001" width="19.09" id="svg_440" height="19.76" fill="#0992CA" class="C0810"/>
  <rect y="188.83" x="236.60001" width="21" id="svg_441" height="20.4" fill="#0992CA" class="C0811"/>
  <rect y="188.8" x="260.91001" width="20.45" id="svg_442" height="20.45" fill="#0992CA" class="C0812"/>
  <rect y="215.62" x="0.69001" width="20.4" id="svg_443" height="20.4" fill="#0992CA" class="C0901"/>
  <rect y="215.62" x="25.00001" width="20.4" id="svg_444" height="20.4" fill="#0992CA" class="C0902"/>
  <rect y="215.62" x="47.96001" width="20.4" id="svg_445" height="20.4" fill="#0992CA" class="C0903"/>
  <rect y="215.62" x="71.60001" width="20.4" id="svg_446" height="20.4" fill="#0992CA" class="C0904"/>
  <rect y="215.62" x="94.78001" width="20.4" id="svg_447" height="20.4" fill="#0992CA" class="C0905"/>
  <rect y="215.62" x="118.67001" width="20.4" id="svg_448" height="20.4" fill="#0992CA" class="C0906"/>
  <rect y="215.62" x="142.96001" width="20.4" id="svg_449" height="20.4" fill="#0992CA" class="C0907"/>
  <rect y="215.62" x="166.14001" width="20.4" id="svg_450" height="20.4" fill="#0992CA" class="C0908"/>
  <rect y="215.62" x="190.45001" width="20.4" id="svg_451" height="20.4" fill="#0992CA" class="C0909"/>
  <rect y="215.62" x="213.42001" width="20.4" id="svg_452" height="20.4" fill="#0992CA" class="C0910"/>
  <rect y="215.62" x="236.60001" width="21" id="svg_453" height="20.4" fill="#0992CA" class="C0911"/>
  <rect y="215.62" x="260.69001" width="20.4" id="svg_454" height="20.4" fill="#0992CA" class="C0912"/>
  <rect y="215.62" x="284.09001" width="20.4" id="svg_455" height="20.4" fill="#0992CA" class="C0913"/>
  <rect y="242.82" x="0.45001" width="20.4" id="svg_456" height="20.4" fill="#0992CA" class="C1001"/>
  <rect y="242.82" x="25.00001" width="20.4" id="svg_457" height="20.4" fill="#0992CA" class="C1002"/>
  <rect y="242.82" x="47.72001" width="21" id="svg_458" height="20.4" fill="#0992CA" class="C1003"/>
  <rect y="242.82" x="72.05001" width="20.4" id="svg_459" height="20.4" fill="#0992CA" class="C1004"/>
  <rect y="242.82" x="95.03001" width="20.4" id="svg_460" height="20.4" fill="#0992CA" class="C1005"/>
  <rect y="242.82" x="118.87001" width="21.07" id="svg_461" height="20.4" fill="#0992CA" class="C1006"/>
  <rect y="242.82" x="143.18001" width="20.4" id="svg_462" height="20.4" fill="#0992CA" class="C1007"/>
  <rect y="242.82" x="165.48001" width="21.07" id="svg_463" height="20.4" fill="#0992CA" class="C1008"/>
  <rect y="242.82" x="189.78001" width="20.4" id="svg_464" height="20.4" fill="#0992CA" class="C1009"/>
  <rect y="242.82" x="213.63001" width="20.4" id="svg_465" height="20.4" fill="#0992CA" class="C1010"/>
  <rect y="242.82" x="236.60001" width="21" id="svg_466" height="20.4" fill="#0992CA" class="C1011"/>
  <rect y="242.82" x="260.69001" width="20.4" id="svg_467" height="20.4" fill="#0992CA" class="C1012"/>
  <rect y="242.82" x="284.09001" width="20.4" id="svg_468" height="20.4" fill="#0992CA" class="C1013"/>
  <rect y="269.83" x="0.00001" width="20.4" id="svg_469" height="20.4" fill="#0992CA" class="C1101"/>
  <rect y="269.83" x="24.54001" width="20.4" id="svg_470" height="20.4" fill="#0992CA" class="C1102"/>
  <rect y="269.83" x="47.97001" width="20.4" id="svg_471" height="20.4" fill="#0992CA" class="C1103"/>
  <rect y="269.83" x="71.81001" width="20.4" id="svg_472" height="20.4" fill="#0992CA" class="C1104"/>
  <rect y="269.83" x="94.78001" width="21.73" id="svg_473" height="20.4" fill="#0992CA" class="C1105"/>
  <rect y="269.83" x="119.09001" width="20.4" id="svg_474" height="20.4" fill="#0992CA" class="C1106"/>
  <rect y="269.83" x="142.72001" width="20.4" id="svg_475" height="20.4" fill="#0992CA" class="C1107"/>
  <rect y="269.83" x="165.91001" width="20.4" id="svg_476" height="20.4" fill="#0992CA" class="C1108"/>
  <rect y="269.83" x="189.96001" width="20.4" id="svg_477" height="20.4" fill="#0992CA" class="C1109"/>
  <rect y="269.83" x="214.54001" width="20.4" id="svg_478" height="20.4" fill="#0992CA" class="C1110"/>
  <rect y="269.83" x="236.81001" width="21" id="svg_479" height="20.4" fill="#0992CA" class="C1111"/>
  <rect y="269.83" x="260.91001" width="20.4" id="svg_480" height="20.4" fill="#0992CA" class="C1112"/>
  <rect y="269.83" x="284.09001" width="20.4" id="svg_481" height="20.4" fill="#0992CA" class="C1113"/>
  <rect y="296.97" x="0.45001" width="20.4" id="svg_482" height="20.4" fill="#0992CA" class="C1201"/>
  <rect y="296.97" x="24.78001" width="20.4" id="svg_483" height="20.4" fill="#0992CA" class="C1202"/>
  <rect y="296.97" x="47.96001" width="20.4" id="svg_485" height="20.4" fill="#0992CA" class="C1203"/>
  <rect y="296.97" x="71.81001" width="20.4" id="svg_486" height="20.4" fill="#0992CA" class="C1204"/>
  <rect y="296.97" x="95.45001" width="20.4" id="svg_487" height="20.4" fill="#0992CA" class="C1205"/>
  <rect y="296.97" x="119.09001" width="21" id="svg_488" height="20.4" fill="#0992CA" class="C1206"/>
  <rect y="296.97" x="142.72001" width="20.4" id="svg_489" height="20.4" fill="#0992CA" class="C1207"/>
  <rect y="296.97" x="165.91001" width="20.4" id="svg_490" height="20.4" fill="#0992CA" class="C1208"/>
  <rect y="296.97" x="189.54001" width="20.4" id="svg_491" height="20.4" fill="#0992CA" class="C1209"/>
  <rect y="296.97" x="213.63001" width="20.4" id="svg_492" height="20.4" fill="#0992CA" class="C1210"/>
  <rect y="296.97" x="236.81001" width="21" id="svg_493" height="20.4" fill="#0992CA" class="C1211"/>
  <rect y="296.97" x="260.45001" width="20.4" id="svg_494" height="20.4" fill="#0992CA" class="C1212"/>
  <rect y="296.97" x="283.63001" width="21.07" id="svg_495" height="20.4" fill="#0992CA" class="C1213"/>
  <rect y="323.6" x="0.45001" width="20.4" id="svg_496" height="20.4" fill="#0992CA" class="C1301"/>
  <rect y="323.6" x="24.09001" width="20.4" id="svg_497" height="20.4" fill="#0992CA" class="C1302"/>
  <rect y="323.6" x="48.63001" width="20.4" id="svg_498" height="20.4" fill="#0992CA" class="C1303"/>
  <rect y="323.6" x="72.27001" width="20.4" id="svg_499" height="20.4" fill="#0992CA" class="C1304"/>
  <rect y="323.6" x="94.78001" width="20.4" id="svg_500" height="20.4" fill="#0992CA" class="C1305"/>
  <rect y="323.8" x="118.87001" width="21" id="svg_501" height="20" fill="#0992CA" class="C1306"/>
  <rect y="323.6" x="142.72001" width="20.4" id="svg_502" height="20.4" fill="#0992CA" class="C1307"/>
  <rect y="323.6" x="165.91001" width="20.4" id="svg_503" height="20.4" fill="#0992CA" class="C1308"/>
  <rect y="323.6" x="190.00001" width="20.4" id="svg_504" height="20.4" fill="#0992CA" class="C1309"/>
  <rect y="323.6" x="213.63001" width="20.4" id="svg_505" height="20.4" fill="#0992CA" class="C1310"/>
  <rect y="323.6" x="237.27001" width="20.4" id="svg_506" height="20.4" fill="#0992CA" class="C1311"/>
  <rect y="323.6" x="260.45001" width="20.4" id="svg_507" height="20.4" fill="#0992CA" class="C1312"/>
  <rect y="323.6" x="283.63001" width="21.73" id="svg_508" height="20.4" fill="#0992CA" class="C1313"/>
  <rect y="351.18" x="0.45001" width="20.4" id="svg_509" height="20.4" fill="#0992CA" class="C1401"/>
  <rect y="351.18" x="25.00001" width="20.4" id="svg_510" height="20.4" fill="#0992CA" class="C1402"/>
  <rect y="351.18" x="47.72001" width="21" id="svg_511" height="20.4" fill="#0992CA" class="C1403"/>
  <rect y="351.18" x="71.60001" width="21.07" id="svg_512" height="20.4" fill="#0992CA" class="C1404"/>
  <rect y="351.18" x="94.78001" width="21" id="svg_513" height="20.4" fill="#0992CA" class="C1405"/>
  <rect y="351.18" x="118.87001" width="21" id="svg_514" height="20.4" fill="#0992CA" class="C1406"/>
  <rect y="350.84" x="142.72001" width="20.4" id="svg_515" height="21.07" fill="#0992CA" class="C1407"/>
  <rect y="351.18" x="166.14001" width="20.4" id="svg_516" height="20.4" fill="#0992CA" class="C1408"/>
  <rect y="351.18" x="190.00001" width="20.4" id="svg_517" height="20.4" fill="#0992CA" class="C1409"/>
  <rect y="351.18" x="214.54001" width="20.4" id="svg_518" height="20.4" fill="#0992CA" class="C1410"/>
  <rect y="351.18" x="237.05001" width="21.07" id="svg_519" height="20.4" fill="#0992CA" class="C1411"/>
  <rect y="351.18" x="260.45001" width="20.4" id="svg_520" height="20.4" fill="#0992CA" class="C1412"/>
  <rect y="351.18" x="283.67001" width="21" id="svg_521" height="20.4" fill="#0992CA" class="C1413"/>
  <rect y="377.94" x="0.91001" width="20.4" id="svg_522" height="20.4" fill="#0992CA" class="C1501"/>
  <rect y="377.94" x="24.54001" width="20.4" id="svg_523" height="20.4" fill="#0992CA" class="C1502"/>
  <rect y="377.94" x="47.72001" width="21" id="svg_524" height="20.4" fill="#0992CA" class="C1503"/>
  <rect y="377.94" x="71.81001" width="20.4" id="svg_526" height="20.4" fill="#0992CA" class="C1504"/>
  <rect y="377.94" x="95.00001" width="20.4" id="svg_527" height="20.4" fill="#0992CA" class="C1505"/>
  <rect y="377.94" x="118.63001" width="21" id="svg_528" height="20.4" fill="#0992CA" class="C1506"/>
  <rect y="377.94" x="142.72001" width="20.4" id="svg_529" height="20.4" fill="#0992CA" class="C1507"/>
  <rect y="377.94" x="165.94001" width="20.4" id="svg_530" height="20.4" fill="#0992CA" class="C1508"/>
  <rect y="377.94" x="189.54001" width="20.4" id="svg_531" height="20.4" fill="#0992CA" class="C1509"/>
  <rect y="377.94" x="213.87001" width="20.4" id="svg_532" height="20.4" fill="#0992CA" class="C1510"/>
  <rect y="377.94" x="237.05001" width="21" id="svg_533" height="20.4" fill="#0992CA" class="C1511"/>
  <rect y="377.94" x="261.36001" width="20.4" id="svg_534" height="20.4" fill="#0992CA" class="C1512"/>
  <rect y="377.94" x="283.42001" width="21" id="svg_535" height="20.4" fill="#0992CA" class="C1513"/>
  <rect y="404.71" x="1.36001" width="20.4" id="svg_536" height="22.4" fill="#0992CA" class="C1601"/>
  <rect y="405.04" x="25.00001" width="20.4" id="svg_537" height="21.73" fill="#0992CA" class="C1602"/>
  <rect y="405.71" x="47.96001" width="20.4" id="svg_538" height="20.4" fill="#0992CA" class="C1603"/>
  <rect y="405.71" x="71.60001" width="21" id="svg_539" height="20.4" fill="#0992CA" class="C1604"/>
  <rect y="405.71" x="95.21001" width="20.4" id="svg_540" height="20.4" fill="#0992CA" class="C1605"/>
  <rect y="405.41" x="118.63001" width="21" id="svg_541" height="21" fill="#0992CA" class="C1606"/>
  <rect y="405.71" x="142.30001" width="20.4" id="svg_542" height="20.4" fill="#0992CA" class="C1607"/>
  <rect y="405.71" x="165.91001" width="20.4" id="svg_543" height="20.4" fill="#0992CA" class="C1608"/>
  <rect y="405.71" x="189.12001" width="21" id="svg_544" height="20.4" fill="#0992CA" class="C1609"/>
  <rect y="405.71" x="213.63001" width="20.4" id="svg_545" height="20.4" fill="#0992CA" class="C1610"/>
  <rect y="405.41" x="237.05001" width="21.07" id="svg_546" height="21" fill="#0992CA" class="C1611"/>
  <rect y="405.71" x="260.69001" width="20.4" id="svg_547" height="20.4" fill="#0992CA" class="C1612"/>
  <rect y="404.71" x="283.87001" width="20.4" id="svg_548" height="22.4" fill="#0992CA" class="C1613"/>
  <rect y="432.38" x="0.91001" width="20.4" id="svg_549" height="20.4" fill="#0992CA" class="C1701"/>
  <rect y="432.38" x="24.58001" width="20.4" id="svg_550" height="20.4" fill="#0992CA" class="C1702"/>
  <rect y="432.05" x="47.96001" width="20.4" id="svg_551" height="21.07" fill="#0992CA" class="C1703"/>
  <rect y="432.08" x="71.81001" width="20.4" id="svg_552" height="21" fill="#0992CA" class="C1704"/>
  <rect y="432.08" x="95.00001" width="20.4" id="svg_553" height="21" fill="#0992CA" class="C1705"/>
  <rect y="432.08" x="119.09001" width="21" id="svg_554" height="21" fill="#0992CA" class="C1706"/>
  <rect y="432.38" x="142.75001" width="20.4" id="svg_555" height="20.4" fill="#0992CA" class="C1707"/>
  <rect y="432.08" x="165.91001" width="20.4" id="svg_556" height="21" fill="#0992CA" class="C1708"/>
  <rect y="431.38" x="189.78001" width="21.07" id="svg_557" height="22.4" fill="#0992CA" class="C1709"/>
  <rect y="432.08" x="213.42001" width="20.4" id="svg_558" height="21" fill="#0992CA" class="C1710"/>
  <rect y="432.05" x="236.81001" width="22.4" id="svg_559" height="21.07" fill="#0992CA" class="C1711"/>
  <rect y="432.08" x="260.91001" width="20.4" id="svg_560" height="21" fill="#0992CA" class="C1712"/>
  <rect y="432.05" x="283.63001" width="21.73" id="svg_561" height="21.07" fill="#0992CA" class="C1713"/>
 </g>
</svg>