<svg width="397" height="209" xmlns="http://www.w3.org/2000/svg" xml:space="preserve" version="1.1" preserveAspectRatio="xMidYMid meet">
 <title>Layer 1</title>

 <g class="layer">
  <title>Layer 1</title>
  <rect y="0" x="21.92" width="20.4" id="svg_562" height="20.4" fill="#048FC9" class="D0101"/>
  <rect y="0" x="46.01" width="20.4" id="svg_563" height="20.4" fill="#048FC9" class="D0102"/>
  <rect y="0" x="69.64" width="20.4" id="svg_564" height="20.4" fill="#048FC9" class="D0103"/>
  <rect y="0" x="92.83" width="20.4" id="svg_565" height="20.4" fill="#048FC9" class="D0104"/>
  <rect y="0" x="116.92" width="20.4" id="svg_566" height="20.4" fill="#048FC9" class="D0105"/>
  <rect y="0" x="140.79" width="20.4" id="svg_567" height="20.4" fill="#048FC9" class="D0106"/>
  <rect y="0" x="163.52" width="21" id="svg_568" height="20.4" fill="#048FC9" class="D0107"/>
  <rect y="0" x="187.37" width="20.4" id="svg_569" height="20.4" fill="#048FC9" class="D0108"/>
  <rect y="0" x="211.01" width="20.4" id="svg_570" height="20.4" fill="#048FC9" class="D0109"/>
  <rect y="0" x="235.1" width="20.4" id="svg_571" height="20.4" fill="#048FC9" class="D0110"/>
  <rect y="0" x="258.97" width="20.4" id="svg_572" height="20.4" fill="#048FC9" class="D0111"/>
  <rect y="0" x="282.13" width="20.4" id="svg_573" height="20.4" fill="#048FC9" class="D0112"/>
  <rect y="0" x="305.55" width="20.4" id="svg_574" height="20.4" fill="#048FC9" class="D0113"/>
  <rect y="0" x="329.19" width="20.4" id="svg_575" height="20.4" fill="#048FC9" class="D0114"/>
  <rect y="26.31" x="0" width="20" id="svg_576" height="20" fill="#048FC9" class="D0201"/>
  <rect y="26.31" x="22.13" width="20.4" id="svg_577" height="20.4" fill="#048FC9" class="D0202"/>
  <rect y="26.31" x="46.01" width="20.4" id="svg_578" height="20.4" fill="#048FC9" class="D0203"/>
  <rect y="26.31" x="69.19" width="20.4" id="svg_579" height="20.4" fill="#048FC9" class="D0204"/>
  <rect y="26.31" x="92.16" width="20.4" id="svg_580" height="20.4" fill="#048FC9" class="D0205"/>
  <rect y="26.31" x="116.5" width="20.4" id="svg_581" height="20.4" fill="#048FC9" class="D0206"/>
  <rect y="26.31" x="139.64" width="20.4" id="svg_582" height="20.4" fill="#048FC9" class="D0207"/>
  <rect y="26.31" x="163.28" width="20.4" id="svg_583" height="20.4" fill="#048FC9" class="D0208"/>
  <rect y="26.31" x="186.7" width="21" id="svg_584" height="20.4" fill="#048FC9" class="D0209"/>
  <rect y="26.31" x="210.79" width="20.4" id="svg_585" height="20.4" fill="#048FC9" class="D0210"/>
  <rect y="26.31" x="234.64" width="20.4" id="svg_586" height="20.4" fill="#048FC9" class="D0211"/>
  <rect y="26.31" x="258.06" width="21" id="svg_587" height="20.4" fill="#048FC9" class="D0212"/>
  <rect y="26.31" x="282.16" width="20.4" id="svg_588" height="20.4" fill="#048FC9" class="D0213"/>
  <rect y="26.31" x="305.1" width="20.4" id="svg_589" height="20.4" fill="#048FC9" class="D0214"/>
  <rect y="26.31" x="328.73" width="20.4" id="svg_590" height="20.4" fill="#048FC9" class="D0215"/>
  <rect y="26.31" x="352.61" width="20.4" id="svg_591" height="20.4" fill="#048FC9" class="D0216"/>
  <rect y="26.31" x="376.22" width="20.4" id="svg_592" height="20.4" fill="#048FC9" class="D0217"/>
  <rect y="52.49" x="0" width="20" id="svg_593" height="20" fill="#048FC9" class="D0301"/>
  <rect y="52.49" x="21.46" width="20" id="svg_594" height="20.4" fill="#048FC9" class="D0302"/>
  <rect y="52.49" x="46.01" width="20" id="svg_595" height="20.4" fill="#048FC9" class="D0303"/>
  <rect y="52.49" x="68.52" width="20" id="svg_596" height="20.4" fill="#048FC9" class="D0304"/>
  <rect y="52.49" x="92.83" width="20" id="svg_597" height="20.4" fill="#048FC9" class="D0305"/>
  <rect y="52.49" x="116.7" width="20" id="svg_598" height="20.4" fill="#048FC9" class="D0306"/>
  <rect y="52.49" x="139.88" width="20" id="svg_599" height="20.4" fill="#048FC9" class="D0307"/>
  <rect y="52.49" x="163.5" width="20" id="svg_600" height="20.4" fill="#048FC9" class="D0308"/>
  <rect y="52.49" x="186.7" width="20" id="svg_601" height="20.4" fill="#048FC9" class="D0309"/>
  <rect y="52.49" x="211.01" width="20" id="svg_602" height="20.4" fill="#048FC9" class="D0310"/>
  <rect y="52.49" x="234.19" width="20" id="svg_604" height="20.4" fill="#048FC9" class="D0311"/>
  <rect y="52.49" x="257.61" width="20" id="svg_605" height="20.4" fill="#048FC9" class="D0312"/>
  <rect y="52.49" x="281.5" width="20" id="svg_606" height="20.4" fill="#048FC9" class="D0313"/>
  <rect y="52.49" x="305.1" width="20" id="svg_607" height="20.4" fill="#048FC9" class="D0314"/>
  <rect y="52.49" x="329.19" width="20" id="svg_608" height="20.4" fill="#048FC9" class="D0315"/>
  <rect y="52.49" x="353.28" width="20" id="svg_609" height="20.4" fill="#048FC9" class="D0316"/>
  <rect y="52.49" x="376.46" width="20" id="svg_610" height="20.4" fill="#048FC9" class="D0317"/>
  <rect y="78.46" x="0" width="20" id="svg_611" height="20" fill="#048FC9" class="D0401"/>
  <rect y="78.46" x="21.46" width="20" id="svg_612" height="20" fill="#048FC9" class="D0402"/>
  <rect y="78.46" x="46.01" width="20" id="svg_613" height="20" fill="#048FC9" class="D0403"/>
  <rect y="78.46" x="68.3" width="20" id="svg_614" height="20" fill="#048FC9" class="D0404"/>
  <rect y="78.46" x="91.92" width="20" id="svg_615" height="20" fill="#048FC9" class="D0405"/>
  <rect y="78.46" x="116.04" width="20" id="svg_616" height="20" fill="#048FC9" class="D0406"/>
  <rect y="78.46" x="139.43" width="20" id="svg_617" height="20" fill="#048FC9" class="D0407"/>
  <rect y="78.46" x="163.73" width="20" id="svg_618" height="20" fill="#048FC9" class="D0408"/>
  <rect y="78.46" x="187.16" width="20" id="svg_619" height="20" fill="#048FC9" class="D0409"/>
  <rect y="78.46" x="210.1" width="20" id="svg_620" height="20" fill="#048FC9" class="D0410"/>
  <rect y="78.46" x="234.19" width="20" id="svg_621" height="20" fill="#048FC9" class="D0411"/>
  <rect y="78.46" x="258.28" width="20" id="svg_622" height="20" fill="#048FC9" class="D0412"/>
  <rect y="78.46" x="281.46" width="20" id="svg_623" height="20" fill="#048FC9" class="D0413"/>
  <rect y="78.46" x="304.88" width="20" id="svg_624" height="20" fill="#048FC9" class="D0414"/>
  <rect y="78.46" x="328.73" width="20" id="svg_625" height="20" fill="#048FC9" class="D0415"/>
  <rect y="78.46" x="352.83" width="20" id="svg_626" height="20" fill="#048FC9" class="D0416"/>
  <rect y="78.46" x="375.79" width="20" id="svg_627" height="20" fill="#048FC9" class="D0417"/>
  <rect y="105.28" x="0" width="20" id="svg_628" height="20" fill="#048FC9" class="D0501"/>
  <rect y="105.28" x="21.46" width="20" id="svg_629" height="20" fill="#048FC9" class="D0502"/>
  <rect y="105.28" x="45.34" width="20" id="svg_630" height="20" fill="#048FC9" class="D0503"/>
  <rect y="105.28" x="68.73" width="20" id="svg_631" height="20" fill="#048FC9" class="D0504"/>
  <rect y="105.28" x="92.83" width="20" id="svg_632" height="20" fill="#048FC9" class="D0505"/>
  <rect y="105.28" x="116.92" width="20" id="svg_633" height="20" fill="#048FC9" class="D0506"/>
  <rect y="105.28" x="139.43" width="20" id="svg_634" height="20" fill="#048FC9" class="D0507"/>
  <rect y="105.28" x="163.97" width="20" id="svg_635" height="20" fill="#048FC9" class="D0508"/>
  <rect y="105.28" x="187.16" width="20" id="svg_636" height="20" fill="#048FC9" class="D0509"/>
  <rect y="105.28" x="210.79" width="20" id="svg_637" height="20" fill="#048FC9" class="D0510"/>
  <rect y="105.28" x="234.86" width="20" id="svg_638" height="20" fill="#048FC9" class="D0511"/>
  <rect y="105.28" x="257.83" width="20" id="svg_639" height="20" fill="#048FC9" class="D0512"/>
  <rect y="105.28" x="281.5" width="20" id="svg_640" height="20" fill="#048FC9" class="D0513"/>
  <rect y="105.28" x="305.1" width="20" id="svg_641" height="20" fill="#048FC9" class="D0514"/>
  <rect y="105.28" x="329.19" width="20" id="svg_642" height="20" fill="#048FC9" class="D0515"/>
  <rect y="105.28" x="352.61" width="20" id="svg_643" height="20" fill="#048FC9" class="D0516"/>
  <rect y="105.28" x="376.01" width="20" id="svg_644" height="20" fill="#048FC9" class="D0517"/>
  <rect y="131.48" x="0" width="20" id="svg_645" height="20" fill="#048FC9" class="D0601"/>
  <rect y="131.48" x="21.92" width="20" id="svg_646" height="20" fill="#048FC9" class="D0602"/>
  <rect y="131.48" x="45.1" width="20" id="svg_647" height="20" fill="#048FC9" class="D0603"/>
  <rect y="131.48" x="68.73" width="20" id="svg_648" height="20" fill="#048FC9" class="D0604"/>
  <rect y="131.48" x="92.83" width="20" id="svg_649" height="20" fill="#048FC9" class="D0605"/>
  <rect y="131.48" x="116.46" width="20" id="svg_650" height="20" fill="#048FC9" class="D0606"/>
  <rect y="131.48" x="140.1" width="20" id="svg_651" height="20" fill="#048FC9" class="D0607"/>
  <rect y="131.48" x="163.28" width="20" id="svg_652" height="20" fill="#048FC9" class="D0608"/>
  <rect y="131.48" x="187.16" width="20" id="svg_653" height="20" fill="#048FC9" class="D0609"/>
  <rect y="131.48" x="211.01" width="20" id="svg_654" height="20" fill="#048FC9" class="D0610"/>
  <rect y="131.48" x="234.85" width="20" id="svg_655" height="20" fill="#048FC9" class="D0611"/>
  <rect y="131.48" x="257.83" width="20" id="svg_656" height="20" fill="#048FC9" class="D0612"/>
  <rect y="131.48" x="281.46" width="20" id="svg_657" height="20" fill="#048FC9" class="D0613"/>
  <rect y="131.48" x="304.88" width="20" id="svg_658" height="20" fill="#048FC9" class="D0614"/>
  <rect y="131.48" x="329.19" width="20" id="svg_659" height="20" fill="#048FC9" class="D0615"/>
  <rect y="131.48" x="352.83" width="20" id="svg_660" height="20" fill="#048FC9" class="D0616"/>
  <rect y="131.48" x="375.55" width="20" id="svg_661" height="20" fill="#048FC9" class="D0617"/>
  <rect y="157.66" x="68.73" width="20" id="svg_662" height="20" fill="#048FC9" class="D0701"/>
  <rect y="157.66" x="93.28" width="20" id="svg_663" height="20" fill="#048FC9" class="D0702"/>
  <rect y="157.66" x="115.34" width="20" id="svg_664" height="20" fill="#048FC9" class="D0703"/>
  <rect y="157.66" x="139.64" width="20" id="svg_665" height="20" fill="#048FC9" class="D0704"/>
  <rect y="157.66" x="162.37" width="20" id="svg_666" height="20" fill="#048FC9" class="D0705"/>
  <rect y="157.66" x="186.92" width="20" id="svg_667" height="20" fill="#048FC9" class="D0706"/>
  <rect y="157.66" x="210.55" width="20" id="svg_668" height="20" fill="#048FC9" class="D0707"/>
  <rect y="157.66" x="233.52" width="20" id="svg_669" height="20" fill="#048FC9" class="D0708"/>
  <rect y="157.66" x="257.37" width="20" id="svg_670" height="20" fill="#048FC9" class="D0709"/>
  <rect y="157.66" x="281.7" width="20" id="svg_671" height="20" fill="#048FC9" class="D0710"/>
  <rect y="157.66" x="305.1" width="20" id="svg_672" height="20" fill="#048FC9" class="D0711"/>
  <rect y="157.66" x="329.19" width="20" id="svg_673" height="20" fill="#048FC9" class="D0712"/>
  <rect y="157.66" x="351.46" width="20" id="svg_674" height="20" fill="#048FC9" class="D0713"/>
  <rect y="157.66" x="375.34" width="20" id="svg_675" height="20" fill="#048FC9" class="D0714"/>
  <rect y="185.87" x="92.83" width="20" id="svg_676" height="20" fill="#048FC9" class="D0801"/>
  <rect y="189.05621" x="104.65285" width="20" transform="matrix(0.999863 0.0165224 -0.0165224 0.999863 15.3595 -4.72495)" id="svg_677" height="20" fill="#048FC9" class="D0802"/>
  <rect y="185.87" x="139.64" width="20" id="svg_678" height="20" fill="#048FC9" class="D0803"/>
  <rect y="185.87" x="163.28" width="20" id="svg_679" height="20" fill="#048FC9" class="D0804"/>
  <rect y="185.87" x="186.92" width="20" id="svg_680" height="20" fill="#048FC9" class="D0805"/>
  <rect y="185.87" x="210.59" width="20" id="svg_681" height="20" fill="#048FC9" class="D0806"/>
  <rect y="185.87" x="234.43" width="20" id="svg_682" height="20" fill="#048FC9" class="D0807"/>
  <rect y="185.87" x="258.04" width="20" id="svg_683" height="20" fill="#048FC9" class="D0808"/>
  <rect y="185.87" x="281.04" width="20" id="svg_684" height="20" fill="#048FC9" class="D0809"/>
  <rect y="185.87" x="306.01" width="20" id="svg_685" height="20" fill="#048FC9" class="D0810"/>
  <rect y="185.87" x="328.97" width="20" id="svg_686" height="20" fill="#048FC9" class="D0811"/>
  <rect y="185.87" x="352.37" width="20" id="svg_687" height="20" fill="#048FC9" class="D0812"/>
  <rect y="185.87" x="376.01" width="20" id="svg_688" height="20" fill="#048FC9" class="D0813"/>
 </g>
</svg>