<svg width="399" height="206" xmlns="http://www.w3.org/2000/svg" xml:space="preserve" version="1.1" preserveAspectRatio="xMidYMid meet">
 <title>Layer 1</title>

 <g class="layer">
  <title>Layer 1</title>
  <rect y="0.29998" x="48.17999" width="20.4" id="svg_689" height="20.4" fill="#048FC9" class="E0101"/>
  <rect y="-0.00002" x="71.59999" width="20.4" id="svg_690" height="21" fill="#048FC9" class="E0102"/>
  <rect y="-0.00002" x="95.47999" width="20.4" id="svg_691" height="21" fill="#048FC9" class="E0103"/>
  <rect y="-0.00002" x="118.65999" width="20.4" id="svg_692" height="21" fill="#048FC9" class="E0104"/>
  <rect y="-0.00002" x="142.74999" width="20.4" id="svg_693" height="21" fill="#048FC9" class="E0105"/>
  <rect y="0.29998" x="166.59999" width="20.4" id="svg_694" height="20.4" fill="#048FC9" class="E0106"/>
  <rect y="-0.00002" x="189.56999" width="21" id="svg_695" height="21" fill="#048FC9" class="E0107"/>
  <rect y="0.29998" x="213.87999" width="20.4" id="svg_696" height="20.4" fill="#048FC9" class="E0108"/>
  <rect y="0.29998" x="236.59999" width="20.4" id="svg_697" height="20.4" fill="#048FC9" class="E0109"/>
  <rect y="0.29998" x="260.92999" width="20.4" id="svg_698" height="20.4" fill="#048FC9" class="E0110"/>
  <rect y="0.29998" x="284.36999" width="20.4" id="svg_699" height="20.4" fill="#048FC9" class="E0111"/>
  <rect y="0.29998" x="307.53999" width="21" id="svg_700" height="20.4" fill="#048FC9" class="E0112"/>
  <rect y="0.29998" x="331.59999" width="20.4" id="svg_701" height="20.4" fill="#048FC9" class="E0113"/>
  <rect y="0.29998" x="354.78999" width="20.4" id="svg_702" height="20.4" fill="#048FC9" class="E0114"/>
  <rect y="26.60998" x="-0.00001" width="20" id="svg_703" height="20.4" fill="#048FC9" class="E0201"/>
  <rect y="26.60998" x="23.87999" width="20.4" id="svg_704" height="20.4" fill="#048FC9" class="E0202"/>
  <rect y="26.60998" x="48.41999" width="20.4" id="svg_705" height="20.4" fill="#048FC9" class="E0203"/>
  <rect y="26.60998" x="71.36999" width="21.07" id="svg_706" height="20.4" fill="#048FC9" class="E0204"/>
  <rect y="26.60998" x="95.23999" width="20.4" id="svg_707" height="20.4" fill="#048FC9" class="E0205"/>
  <rect y="26.60998" x="118.20999" width="21" id="svg_708" height="20.4" fill="#048FC9" class="E0206"/>
  <rect y="26.60998" x="142.54999" width="20.4" id="svg_709" height="20.4" fill="#048FC9" class="E0207"/>
  <rect y="26.60998" x="166.59999" width="20.4" id="svg_710" height="20.4" fill="#048FC9" class="E0208"/>
  <rect y="26.60998" x="189.56999" width="21" id="svg_711" height="20.4" fill="#048FC9" class="E0209"/>
  <rect y="26.60998" x="213.41999" width="20.4" id="svg_712" height="20.4" fill="#048FC9" class="E0210"/>
  <rect y="26.60998" x="237.50999" width="20.4" id="svg_713" height="20.4" fill="#048FC9" class="E0211"/>
  <rect y="26.60998" x="260.26999" width="21" id="svg_714" height="20.4" fill="#048FC9" class="E0212"/>
  <rect y="26.60998" x="284.78999" width="20.4" id="svg_715" height="20.4" fill="#048FC9" class="E0213"/>
  <rect y="26.60998" x="307.96999" width="20.4" id="svg_716" height="20.4" fill="#048FC9" class="E0214"/>
  <rect y="26.60998" x="331.14999" width="20.4" id="svg_717" height="20.4" fill="#048FC9" class="E0215"/>
  <rect y="26.60998" x="355.23999" width="20.4" id="svg_718" height="20.4" fill="#048FC9" class="E0216"/>
  <rect y="26.60998" x="378.63999" width="20.4" id="svg_719" height="20.4" fill="#048FC9" class="E0217"/>
  <rect y="52.78998" x="0.45999" width="20" id="svg_720" height="20.4" fill="#048FC9" class="E0301"/>
  <rect y="52.78998" x="24.56999" width="20" id="svg_721" height="20.4" fill="#048FC9" class="E0302"/>
  <rect y="52.78998" x="48.20999" width="20" id="svg_722" height="20.4" fill="#048FC9" class="E0303"/>
  <rect y="52.78998" x="72.05999" width="20" id="svg_723" height="20.4" fill="#048FC9" class="E0304"/>
  <rect y="52.78998" x="95.69999" width="20" id="svg_724" height="20.4" fill="#048FC9" class="E0305"/>
  <rect y="52.78998" x="118.41999" width="20" id="svg_725" height="20.4" fill="#048FC9" class="E0306"/>
  <rect y="52.78998" x="142.92999" width="20" id="svg_726" height="20.4" fill="#048FC9" class="E0307"/>
  <rect y="52.78998" x="166.38999" width="20" id="svg_727" height="20.4" fill="#048FC9" class="E0308"/>
  <rect y="52.78998" x="189.78999" width="20" id="svg_728" height="20.4" fill="#048FC9" class="E0309"/>
  <rect y="52.78998" x="213.87999" width="20" id="svg_729" height="20.4" fill="#048FC9" class="E0310"/>
  <rect y="52.78998" x="236.83999" width="20" id="svg_730" height="20.4" fill="#048FC9" class="E0311"/>
  <rect y="52.78998" x="260.69999" width="20" id="svg_731" height="20.4" fill="#048FC9" class="E0312"/>
  <rect y="52.78998" x="284.56999" width="20" id="svg_732" height="20.4" fill="#048FC9" class="E0313"/>
  <rect y="52.78998" x="307.72999" width="20" id="svg_733" height="20.4" fill="#048FC9" class="E0314"/>
  <rect y="52.78998" x="331.81999" width="20" id="svg_734" height="20.4" fill="#048FC9" class="E0315"/>
  <rect y="52.78998" x="355.69999" width="20" id="svg_735" height="20.4" fill="#048FC9" class="E0316"/>
  <rect y="52.78998" x="378.41999" width="20" id="svg_736" height="20.4" fill="#048FC9" class="E0317"/>
  <rect y="78.75998" x="0.23999" width="20" id="svg_737" height="20" fill="#048FC9" class="E0401"/>
  <rect y="78.75998" x="23.87999" width="20" id="svg_738" height="20" fill="#048FC9" class="E0402"/>
  <rect y="78.75998" x="47.96999" width="20" id="svg_739" height="20" fill="#048FC9" class="E0403"/>
  <rect y="78.75998" x="71.14999" width="20" id="svg_741" height="20" fill="#048FC9" class="E0404"/>
  <rect y="78.75998" x="95.69999" width="20" id="svg_742" height="20" fill="#048FC9" class="E0405"/>
  <rect y="78.75998" x="118.87999" width="20" id="svg_743" height="20" fill="#048FC9" class="E0406"/>
  <rect y="78.75998" x="142.96999" width="20" id="svg_744" height="20" fill="#048FC9" class="E0407"/>
  <rect y="78.75998" x="166.59999" width="20" id="svg_745" height="20" fill="#048FC9" class="E0408"/>
  <rect y="78.75998" x="189.56999" width="20" id="svg_746" height="20" fill="#048FC9" class="E0409"/>
  <rect y="78.75998" x="213.65999" width="20" id="svg_747" height="20" fill="#048FC9" class="E0410"/>
  <rect y="78.75998" x="237.96999" width="20" id="svg_748" height="20" fill="#048FC9" class="E0411"/>
  <rect y="78.75998" x="260.69999" width="20" id="svg_749" height="20" fill="#048FC9" class="E0412"/>
  <rect y="78.75998" x="284.78999" width="20" id="svg_750" height="20" fill="#048FC9" class="E0413"/>
  <rect y="78.75998" x="307.54999" width="20" id="svg_751" height="20" fill="#048FC9" class="E0414"/>
  <rect y="78.75998" x="330.92999" width="20" id="svg_752" height="20" fill="#048FC9" class="E0415"/>
  <rect y="78.75998" x="354.78999" width="20" id="svg_753" height="20" fill="#048FC9" class="E0416"/>
  <rect y="78.75998" x="379.11999" width="20" id="svg_754" height="20" fill="#048FC9" class="E0417"/>
  <rect y="105.57998" x="0.89999" width="20" id="svg_755" height="20" fill="#048FC9" class="E0501"/>
  <rect y="105.57998" x="24.07999" width="20" id="svg_756" height="20" fill="#048FC9" class="E0502"/>
  <rect y="105.57998" x="48.65999" width="20" id="svg_757" height="20" fill="#048FC9" class="E0503"/>
  <rect y="105.57998" x="72.05999" width="20" id="svg_758" height="20" fill="#048FC9" class="E0504"/>
  <rect y="105.57998" x="95.23999" width="20" id="svg_759" height="20" fill="#048FC9" class="E0505"/>
  <rect y="105.57998" x="118.65999" width="20" id="svg_760" height="20" fill="#048FC9" class="E0506"/>
  <rect y="105.57998" x="142.96999" width="20" id="svg_761" height="20" fill="#048FC9" class="E0507"/>
  <rect y="105.57998" x="167.05999" width="20" id="svg_762" height="20" fill="#048FC9" class="E0508"/>
  <rect y="105.57998" x="189.56999" width="20" id="svg_763" height="20" fill="#048FC9" class="E0509"/>
  <rect y="105.57998" x="213.65999" width="20" id="svg_764" height="20" fill="#048FC9" class="E0510"/>
  <rect y="105.57998" x="237.05999" width="20" id="svg_765" height="20" fill="#048FC9" class="E0511"/>
  <rect y="105.57998" x="260.26999" width="20" id="svg_766" height="20" fill="#048FC9" class="E0512"/>
  <rect y="105.57998" x="284.11999" width="20" id="svg_767" height="20" fill="#048FC9" class="E0513"/>
  <rect y="105.57998" x="307.74999" width="20" id="svg_768" height="20" fill="#048FC9" class="E0514"/>
  <rect y="105.57998" x="331.14999" width="20" id="svg_769" height="20" fill="#048FC9" class="E0515"/>
  <rect y="105.57998" x="354.78999" width="20" id="svg_770" height="20" fill="#048FC9" class="E0516"/>
  <rect y="105.57998" x="378.41999" width="20" id="svg_771" height="20" fill="#048FC9" class="E0517"/>
  <rect y="131.77998" x="0.69999" width="20" id="svg_772" height="20" fill="#048FC9" class="E0601"/>
  <rect y="131.77998" x="24.32999" width="20" id="svg_773" height="20" fill="#048FC9" class="E0602"/>
  <rect y="131.77998" x="49.32999" width="20" id="svg_774" height="20" fill="#048FC9" class="E0603"/>
  <rect y="131.77998" x="71.83999" width="20" id="svg_775" height="20" fill="#048FC9" class="E0604"/>
  <rect y="131.77998" x="95.47999" width="20" id="svg_776" height="20" fill="#048FC9" class="E0605"/>
  <rect y="131.77998" x="118.87999" width="20" id="svg_777" height="20" fill="#048FC9" class="E0606"/>
  <rect y="131.77998" x="142.05999" width="20" id="svg_778" height="20" fill="#048FC9" class="E0607"/>
  <rect y="131.77998" x="167.05999" width="20" id="svg_779" height="20" fill="#048FC9" class="E0608"/>
  <rect y="131.77998" x="189.78999" width="20" id="svg_780" height="20" fill="#048FC9" class="E0609"/>
  <rect y="131.77998" x="213.41999" width="20" id="svg_781" height="20" fill="#048FC9" class="E0610"/>
  <rect y="131.77998" x="236.59999" width="20" id="svg_782" height="20" fill="#048FC9" class="E0611"/>
  <rect y="131.77998" x="260.26999" width="20" id="svg_783" height="20" fill="#048FC9" class="E0612"/>
  <rect y="131.77998" x="284.32999" width="20" id="svg_784" height="20" fill="#048FC9" class="E0613"/>
  <rect y="131.77998" x="307.54999" width="20" id="svg_785" height="20" fill="#048FC9" class="E0614"/>
  <rect y="131.77998" x="330.90999" width="20" id="svg_786" height="20" fill="#048FC9" class="E0615"/>
  <rect y="131.77998" x="355.23999" width="20" id="svg_787" height="20" fill="#048FC9" class="E0616"/>
  <rect y="131.77998" x="378.45999" width="20" id="svg_788" height="20" fill="#048FC9" class="E0617"/>
  <rect y="157.95998" x="0.41999" width="20" id="svg_789" height="20" fill="#048FC9" class="E0701"/>
  <rect y="157.95998" x="23.87999" width="20" id="svg_790" height="20" fill="#048FC9" class="E0702"/>
  <rect y="157.95998" x="47.99999" width="20" id="svg_791" height="20" fill="#048FC9" class="E0703"/>
  <rect y="157.95998" x="71.81999" width="20" id="svg_792" height="20" fill="#048FC9" class="E0704"/>
  <rect y="157.95998" x="94.78999" width="20" id="svg_793" height="20" fill="#048FC9" class="E0705"/>
  <rect y="157.95998" x="118.20999" width="20" id="svg_796" height="20" fill="#048FC9" class="E0706"/>
  <rect y="157.95998" x="143.17999" width="20" id="svg_797" height="20" fill="#048FC9" class="E0707"/>
  <rect y="157.95998" x="167.05999" width="20" id="svg_798" height="20" fill="#048FC9" class="E0708"/>
  <rect y="157.95998" x="189.32999" width="20" id="svg_799" height="20" fill="#048FC9" class="E0709"/>
  <rect y="157.95998" x="213.20999" width="20" id="svg_800" height="20" fill="#048FC9" class="E0710"/>
  <rect y="157.95998" x="237.50999" width="20" id="svg_801" height="20" fill="#048FC9" class="E0711"/>
  <rect y="157.95998" x="260.47999" width="20" id="svg_802" height="20" fill="#048FC9" class="E0712"/>
  <rect y="157.95998" x="284.78999" width="20" id="svg_803" height="20" fill="#048FC9" class="E0713"/>
  <rect y="157.95998" x="307.50999" width="20" id="svg_804" height="20" fill="#048FC9" class="E0714"/>
  <rect y="186.16998" x="0.69999" width="20" id="svg_805" height="20" fill="#048FC9" class="E0801"/>
  <rect y="186.16998" x="23.41999" width="20" id="svg_806" height="20" fill="#048FC9" class="E0802"/>
  <rect y="186.16998" x="48.20999" width="20" id="svg_807" height="20" fill="#048FC9" class="E0803"/>
  <rect y="186.16998" x="71.59999" width="20" id="svg_808" height="20" fill="#048FC9" class="E0804"/>
  <rect y="186.16998" x="95.47999" width="20" id="svg_809" height="20" fill="#048FC9" class="E0805"/>
  <rect y="186.16998" x="118.65999" width="20" id="svg_810" height="20" fill="#048FC9" class="E0806"/>
  <rect y="186.16998" x="142.50999" width="20" id="svg_811" height="20" fill="#048FC9" class="E0807"/>
  <rect y="186.16998" x="166.38999" width="20" id="svg_812" height="20" fill="#048FC9" class="E0808"/>
  <rect y="186.16998" x="189.78999" width="20" id="svg_813" height="20" fill="#048FC9" class="E0809"/>
  <rect y="186.16998" x="213.41999" width="20" id="svg_814" height="20" fill="#048FC9" class="E0810"/>
  <rect y="186.16998" x="237.50999" width="20" id="svg_815" height="20" fill="#048FC9" class="E0811"/>
  <rect y="186.16998" x="260.92999" width="20" id="svg_816" height="20" fill="#048FC9" class="E0812"/>
  <rect y="186.16998" x="284.78999" width="20" id="svg_817" height="20" fill="#048FC9" class="E0813"/>
 </g>
</svg>